<?xml version="1.0" encoding="UTF-8" standalone="no"?>
<!-- Created with Inkscape (http://www.inkscape.org/) -->

<svg
   width="199.88057mm"
   height="196.73975mm"
   viewBox="0 0 199.88057 196.73975"
   version="1.1"
   id="svg5"
   xml:space="preserve"
   inkscape:export-filename="LOGO-EXPORTADO.svg"
   inkscape:export-xdpi="96"
   inkscape:export-ydpi="96"
   xmlns:inkscape="http://www.inkscape.org/namespaces/inkscape"
   xmlns:sodipodi="http://sodipodi.sourceforge.net/DTD/sodipodi-0.dtd"
   xmlns="http://www.w3.org/2000/svg"
   xmlns:svg="http://www.w3.org/2000/svg"><sodipodi:namedview
     id="namedview7"
     pagecolor="#ffffff"
     bordercolor="#111111"
     borderopacity="1"
     inkscape:showpageshadow="0"
     inkscape:pageopacity="0"
     inkscape:pagecheckerboard="1"
     inkscape:deskcolor="#d1d1d1"
     inkscape:document-units="mm"
     showgrid="false" /><defs
     id="defs2" /><g
     inkscape:label="Capa 1"
     inkscape:groupmode="layer"
     id="layer1"
     transform="translate(-5.7109906,-50.694163)"><path
       style="fill:#000000;stroke-width:0.249946"
       d="m 96.06656,247.20328 -2.624435,-0.22951 -2.874382,-0.39422 -2.874382,-0.39422 -3.124328,-0.63181 -3.124328,-0.63181 -2.37449,-0.61031 -2.374489,-0.61031 -4.439065,-1.48969 -4.439068,-1.48968 -3.434239,-1.51738 -3.434242,-1.51737 -2.874382,-1.524 -2.874382,-1.52399 -2.574636,-1.57379 -2.574639,-1.57378 -2.424286,-1.68961 -2.424289,-1.68961 -3.124328,-2.49094 -3.124328,-2.49093 -4.507775,-4.51489 -4.507776,-4.51488 -2.382978,-2.99935 -2.382978,-2.99936 -1.765566,-2.49946 -1.765566,-2.49946 -2.138566,-3.56663 -2.138567,-3.56663 -0.165091,-0.52016 -0.165092,-0.52016 0.257975,-0.25797 0.257974,-0.25797 0.334,0.12817 0.333999,0.12816 2.324314,3.90605 2.324313,3.90605 1.94057,2.71092 1.94057,2.71092 2.097804,2.59855 2.097804,2.59855 3.505424,3.59156 3.505423,3.59155 2.603843,2.25233 2.603845,2.25234 2.868675,2.13327 2.868678,2.13328 3.275599,2.09875 3.275598,2.09875 5.498817,2.71806 5.498818,2.71805 3.447983,1.2771 3.447984,1.2771 3.800457,1.09003 3.800458,1.09003 3.124328,0.63022 3.124328,0.63021 2.624436,0.38502 2.624436,0.38503 2.874382,0.27103 2.874381,0.27104 5.623797,-0.001 5.62379,-0.001 2.99935,-0.27471 2.99936,-0.27471 3.2493,-0.49096 3.2493,-0.49096 3.87417,-0.89828 3.87416,-0.89829 3.77452,-1.22046 3.77452,-1.22046 2.97403,-1.22828 2.97403,-1.22828 2.12454,-0.98324 2.12455,-0.98323 3.2493,-1.81453 3.2493,-1.81454 2.84825,-1.86791 2.84825,-1.86792 2.43445,-1.84363 2.43445,-1.84362 1.96574,-1.65551 1.96574,-1.6555 3.46042,-3.41848 3.46042,-3.41847 2.48552,-2.95243 2.48552,-2.95243 1.32287,-1.79655 1.32286,-1.79655 1.75159,-2.62444 1.75159,-2.62443 1.58569,-2.74941 1.58569,-2.74941 1.66993,-3.49925 1.66992,-3.49924 1.38542,-3.62422 1.38541,-3.62423 0.75852,-2.49946 0.75851,-2.49946 0.62709,-2.49946 0.6271,-2.49946 0.62077,-3.37428 0.62078,-3.37427 0.39581,-3.37428 0.39581,-3.37427 0.15545,-4.74898 0.15544,-4.74898 -0.29997,-4.21029 -0.29996,-4.21029 -0.47846,-3.25993 -0.47846,-3.25993 0.13327,-0.21563 0.13326,-0.21562 h 0.4683 0.4683 l 0.13025,0.4374 0.13024,0.43741 0.37666,2.62443 0.37667,2.62444 0.2915,3.3534 0.29151,3.35341 -0.13784,6.89439 -0.13783,6.89439 -0.3997,2.87438 -0.39969,2.87439 -0.51634,2.87438 -0.51633,2.87438 -0.8715,3.46873 -0.87151,3.46874 -1.37289,3.99633 -1.3729,3.99632 -1.12449,2.6327 -1.1245,2.63269 -1.59413,3.18128 -1.59414,3.18127 -1.30492,2.21764 -1.30492,2.21763 -1.75103,2.62444 -1.75102,2.62443 -1.88781,2.49947 -1.88781,2.49946 -2.52842,2.87438 -2.52842,2.87438 -3.23888,3.13116 -3.23889,3.13116 -3.11202,2.49996 -3.11202,2.49995 -2.42429,1.68961 -2.42428,1.68961 -2.69962,1.65301 -2.69961,1.65302 -3.2493,1.69299 -3.2493,1.693 -3.52141,1.49944 -3.52141,1.49943 -3.73989,1.24898 -3.7399,1.24898 -3.61136,0.88558 -3.61135,0.88558 -2.87438,0.50678 -2.87439,0.50678 -3.2493,0.39586 -3.2493,0.39586 -6.4986,0.0881 -6.498604,0.088 -2.624436,-0.22951 z m 6.6963,-10.17016 -0.0727,-4.93644 v -0.038 -0.038 l 3.62422,-0.0864 3.62422,-0.0864 v 0.49934 0.49934 l -3.07309,0.0703 -3.07308,0.0703 0.0737,1.67935 0.0737,1.67936 2.68692,-0.0868 2.68692,-0.0868 v 0.64922 0.64923 l -2.68692,-5e-4 -2.68692,-5e-4 0.084,1.77587 0.084,1.77588 2.97508,-0.0882 2.97509,-0.0882 0.12853,0.33499 0.12854,0.33498 -0.14054,0.2274 -0.14053,0.22739 h -3.59923 -3.59923 l -0.0727,-4.93644 z m -10.137052,4.19007 -1.566156,-0.17808 -0.09175,-0.10016 -0.09175,-0.10015 0.518131,-4.93304 0.518131,-4.93304 1.389719,0.13918 1.389721,0.13918 1.249731,0.242 1.249731,0.242 0.932362,0.61548 0.93236,0.61549 0.471036,0.93702 0.471036,0.93702 0.16049,0.88612 0.1605,0.88613 -0.369802,1.24523 -0.369795,1.24524 -0.844896,0.81891 -0.844896,0.8189 -1.201246,0.36152 -1.201247,0.36153 -0.647628,-0.0342 -0.647629,-0.0342 z m 4.628009,-1.54177 0.871341,-0.53852 0.46489,-1.02365 0.46489,-1.02364 0.0055,-0.67108 0.0055,-0.67108 -0.266595,-0.70363 -0.266595,-0.70362 -0.54573,-0.59459 -0.54573,-0.5946 -0.760582,-0.32444 -0.760581,-0.32444 -1.500085,-0.16971 -1.500083,-0.16972 -0.387249,3.83816 -0.387251,3.83816 0.100718,0.18746 0.100716,0.18746 h 2.017803 2.017804 l 0.871342,-0.53852 z m 19.558283,1.08086 v -0.48008 l 1.79027,-2.21816 1.79026,-2.21816 0.45832,-0.74984 0.45831,-0.74984 0.001,-0.91916 0.001,-0.91916 -0.65857,-0.51803 -0.65857,-0.51803 -0.52868,0.001 -0.52867,10e-4 -0.81742,0.49838 -0.81742,0.49838 -0.27117,0.59516 -0.27117,0.59516 -0.47357,-0.12385 -0.47357,-0.12384 v -0.25969 -0.25968 l 0.65781,-0.86244 0.65781,-0.86244 0.83384,-0.3484 0.83383,-0.3484 h 0.77028 0.77028 l 0.7332,0.37915 0.73319,0.37915 0.37915,0.7332 0.37915,0.73319 v 0.64531 0.64531 l -0.33698,0.80429 -0.33699,0.8043 -1.55773,1.95862 -1.55773,1.95862 0.13147,0.13147 0.13146,0.13147 1.70077,-0.28412 1.70076,-0.28411 0.70793,-0.14322 0.70793,-0.14322 -0.0831,0.57948 -0.0831,0.57948 -2.62443,0.43286 -2.62444,0.43285 -0.81232,0.14813 -0.81233,0.14813 v -0.48009 z m -33.071939,-1.15442 -0.953842,-0.34018 -0.53639,-0.46117 -0.536387,-0.46117 -0.434524,-0.49989 -0.434524,-0.4999 0.401753,-0.30613 0.401754,-0.30614 0.945084,0.85383 0.945084,0.85383 1.00238,0.30031 1.002379,0.30032 0.765963,-0.31727 0.765963,-0.31727 0.144361,-0.57519 0.144364,-0.57518 -0.159255,-0.50177 -0.159256,-0.50177 -1.84721,-1.01381 -1.847213,-1.01381 -0.390591,-0.55764 -0.390591,-0.55765 v -0.91046 -0.91046 l 0.513294,-0.65255 0.513295,-0.65255 0.977017,-0.26308 0.97702,-0.26309 0.696716,0.16755 0.696717,0.16756 0.874812,0.43783 0.874812,0.43782 0.443712,0.49066 0.443712,0.49065 -0.362544,0.30088 -0.362545,0.30089 -1.055968,-0.76494 -1.055968,-0.76494 h -0.94184 -0.941842 l -0.414509,0.15906 -0.414508,0.15906 -0.237439,0.62452 -0.237441,0.62451 0.375656,0.57333 0.375657,0.57332 1.518426,0.80931 1.518424,0.80931 0.612023,0.72735 0.612021,0.72735 v 0.58941 0.58942 l -0.243715,0.64102 -0.243718,0.64102 -0.818554,0.49908 -0.818556,0.49907 -0.874812,-0.0101 -0.874812,-0.01 -0.953845,-0.34018 z m 44.398309,-1.16301 -0.79602,-0.23033 -0.8066,-0.8066 -0.80659,-0.80659 -0.50288,-1.12757 -0.50287,-1.12756 1.6e-4,-1.49968 1.5e-4,-1.49968 0.41321,-0.79025 0.4132,-0.79026 0.65879,-0.5182 0.65878,-0.5182 0.90049,-0.24864 0.9005,-0.24863 1.00766,0.27084 1.00767,0.27084 0.90627,0.95174 0.90628,0.95173 0.40594,1.19137 0.40594,1.19136 v 1.15225 1.15224 l -0.56238,1.11524 -0.56238,1.11523 -1.11523,0.56238 -1.11523,0.56238 -0.50942,-0.0225 -0.50942,-0.0225 -0.79602,-0.23033 z m 2.82883,-1.41729 0.53312,-0.43185 0.2792,-0.54594 0.2792,-0.54595 -0.006,-1.32865 -0.005,-1.32865 -0.45883,-1.01012 -0.45884,-1.01013 -0.80458,-0.67701 -0.80459,-0.67701 h -0.9469 -0.9469 l -0.64048,0.5038 -0.64048,0.5038 -0.29773,0.90214 -0.29773,0.90214 0.14999,1.09432 0.15,1.09432 0.49572,0.9717 0.49573,0.9717 0.69619,0.51926 0.69619,0.51926 0.99979,0.002 0.99978,0.002 0.53313,-0.43185 z m -56.146171,-0.0789 -3.374274,-1.18958 0.06835,-0.33149 0.06836,-0.3315 1.529268,-4.44968 1.529269,-4.44968 0.401944,0.1574 0.401946,0.15741 2.936868,1.01004 2.936869,1.01004 v 0.47034 0.47034 h -0.345104 -0.345103 l -2.416705,-0.87482 -2.416708,-0.87481 h -0.207071 -0.20707 l -0.563886,1.50782 -0.563887,1.50782 0.09601,0.0764 0.096,0.0764 2.436976,0.84565 2.436976,0.84565 v 0.32735 0.32735 l -0.32908,0.12628 -0.329076,0.12628 -2.15038,-0.75899 -2.150378,-0.75899 H 74.124781 73.88832 l -0.533383,1.46285 -0.533383,1.46285 v 0.12743 0.12743 l 2.874382,0.97051 2.874382,0.97052 -0.0038,0.2511 -0.0038,0.2511 -0.18363,0.27134 -0.183633,0.27135 -3.374274,-1.18958 z m 63.150221,-2.09218 -0.961,-0.34265 -0.62591,-0.58368 -0.62591,-0.58369 -0.60511,-1.18879 -0.60512,-1.18879 -0.14967,-1.09197 -0.14968,-1.09198 0.31043,-0.96853 0.31042,-0.96854 0.53159,-0.58613 0.5316,-0.58612 0.67494,-0.35117 0.67494,-0.35118 h 1.02461 1.02461 l 0.70032,0.36216 0.70032,0.36215 0.78748,0.89688 0.78747,0.89689 0.33517,0.80302 0.33516,0.80302 0.17483,0.93359 0.17483,0.9336 -0.2711,1.00677 -0.2711,1.00677 -0.75988,0.86546 -0.75988,0.86546 -0.91674,0.25462 -0.91673,0.25462 -0.24995,-0.01 -0.24995,-0.01 -0.96099,-0.34264 z m 3.09703,-1.5725 0.76921,-0.68736 0.13876,-1.03477 0.13876,-1.03477 -0.40974,-1.23363 -0.40975,-1.23364 -0.80672,-0.76344 -0.80672,-0.76344 -0.5887,-0.30282 -0.58869,-0.30282 -0.80852,0.15168 -0.80852,0.15168 -0.60236,0.64117 -0.60235,0.64118 v 1.68525 1.68526 l 0.69736,1.05377 0.69735,1.05378 0.80232,0.4892 0.80233,0.4892 0.80838,0.001 0.80838,0.001 0.76922,-0.68735 z m -76.055059,-0.58369 -0.934717,-0.21975 -1.752206,-0.8824 -1.752205,-0.8824 v -0.1246 -0.12461 l 2.152659,-4.3088 2.15266,-4.30879 0.08128,-0.0886 0.08128,-0.0886 2.319122,1.21694 2.319121,1.21694 0.713662,1.15433 0.713664,1.15432 v 1.43332 1.43331 l -0.715447,1.15794 -0.715446,1.15794 -0.989544,0.53337 -0.989545,0.53337 -0.874812,0.12823 -0.874812,0.12824 z m 2.799655,-1.3484 0.715359,-0.36993 0.507731,-0.64547 0.507733,-0.64548 0.288935,-0.87549 0.288938,-0.87548 -0.163857,-0.87344 -0.163857,-0.87343 -0.844194,-0.93442 -0.844193,-0.93442 -1.265501,-0.59273 -1.265498,-0.59273 -0.09699,0.10487 -0.09699,0.10487 -1.249161,2.49947 -1.249162,2.49946 -0.397249,0.9512 -0.397247,0.95119 1.555215,0.73575 1.555218,0.73574 0.949711,2e-4 0.949711,1.9e-4 z m 80.060454,-0.69235 -0.24317,-0.31243 -1.8036,-3.43676 -1.8036,-3.43676 h -0.15476 -0.15476 l -0.55998,0.52608 -0.55999,0.52608 -0.26845,-0.16592 -0.26845,-0.16591 v -0.33108 -0.33109 l 1.00051,-0.90389 1.0005,-0.9039 0.18674,0.007 0.18674,0.007 2.32464,4.40682 2.32464,4.40683 -0.32507,0.20619 -0.32507,0.2062 -0.15686,0.004 -0.15685,0.004 -0.24316,-0.31243 z m -51.556923,-3.70579 -2.124544,-0.23255 -3.124328,-0.52069 -3.124328,-0.52069 -3.249301,-0.83597 -3.249301,-0.83597 -3.249302,-1.12017 -3.249301,-1.12018 -3.03353,-1.35668 -3.033533,-1.35669 -2.965177,-1.68702 -2.96518,-1.68702 -2.749409,-1.83701 -2.749408,-1.83701 -2.749409,-2.19731 -2.749409,-2.19731 -3.386509,-3.37901 -3.386509,-3.37902 -2.199065,-2.74941 -2.199067,-2.7494 -2.118229,-3.18874 -2.11823,-3.18873 0.08331,-0.43262 0.08331,-0.43261 0.408982,-0.0788 0.40898,-0.0788 2.15978,3.26638 2.159781,3.26638 2.010053,2.49892 2.01005,2.49891 2.597104,2.71028 2.597101,2.71029 2.147736,1.84811 2.147736,1.84811 2.866038,2.13767 2.866039,2.13768 0.804644,0.47381 0.804645,0.47381 -1.043646,-1.23678 -1.043645,-1.23679 -1.915063,-1.87459 -1.915064,-1.8746 -0.977352,-1.4226 -0.97735,-1.4226 -0.534695,-0.37452 -0.534695,-0.37451 0.298943,-1.07727 0.298944,-1.07726 0.368725,-1.99957 0.368724,-1.99957 0.239958,-0.87481 0.239961,-0.87482 0.0015,-0.91505 0.0015,-0.91506 0.53458,-1.39695 0.534583,-1.39694 0.277743,-0.0381 0.277745,-0.0381 1.99957,-0.0347 1.99957,-0.0347 0.521318,-0.19555 0.521318,-0.19555 0.809316,0.68099 0.809318,0.681 1.514212,0.34982 1.514212,0.34981 0.545535,-0.5125 0.545538,-0.51251 0.35881,2.5e-4 0.35881,2.5e-4 0.726229,0.62456 0.726229,0.62456 h 0.6642 0.664199 l 0.718391,-0.74984 0.71839,-0.74984 h 0.30451 0.304507 l 1.047082,0.87482 1.047083,0.87481 0.163809,7.5e-4 0.163813,7.5e-4 2.249516,0.275 2.249516,0.275 0.440435,0.2346 0.440436,0.23461 0.559349,-0.63512 0.55935,-0.63511 0.562379,0.15396 0.562379,0.15395 v 0.29007 0.29006 l 0.704241,0.77105 0.704241,0.77104 1.482789,0.1845 1.482789,0.18449 1.085971,0.36785 1.085972,0.36786 0.123788,-0.12379 0.123791,-0.12379 -1.031776,-2.99972 -1.031775,-2.99972 0.162695,-0.64824 0.162697,-0.64823 1.471429,-1.33157 1.471428,-1.33156 v -0.74965 -0.74964 l 0.437406,-0.38352 0.437406,-0.38352 0.799913,-0.40506 0.799913,-0.40506 h 0.537495 0.537491 l 2.661736,-0.76891 2.661728,-0.76892 0.87507,-0.94421 0.87506,-0.94421 1.64487,-0.28645 1.64488,-0.28644 h 0.53265 0.53265 l 1.24894,0.49229 1.24893,0.49228 0.10174,-0.17985 0.10174,-0.17985 0.4219,-1.29298 0.4219,-1.29299 0.35885,-0.29782 0.35886,-0.29782 0.9197,-0.31618 0.9197,-0.31618 0.0845,-0.59248 0.0845,-0.59248 0.52554,-0.4374 0.52555,-0.43741 h 2.14429 2.1443 l 1.38974,-0.28339 1.38976,-0.28339 2.46968,0.66109 2.46969,0.66108 1.44004,0.76754 1.44005,0.76754 1.38699,1.2362 1.38698,1.2362 0.15646,0.49295 0.15646,0.49294 0.17061,-0.008 0.17062,-0.008 1.26692,-1.6788 1.26693,-1.6788 1.33841,-2.49946 1.33841,-2.49946 0.43371,-1.37471 0.4337,-1.3747 0.0228,2.56195 0.0226,2.56198 0.18746,-0.007 0.18746,-0.007 0.72832,-1.68041 0.72831,-1.68042 1.78307,-2.37449 1.78306,-2.37449 1.26662,-1.99957 1.26662,-1.99957 0.66275,-1.31222 0.66276,-1.31221 h 0.23227 0.23228 l -0.47258,1.37357 -0.47258,1.37356 -0.2638,2.36578 -0.2638,2.36577 v 0.38477 0.38477 h 0.19226 0.19225 l 0.79961,-1.45449 0.79961,-1.45449 0.82025,-1.01822 0.82024,-1.01821 2.6261,-2.33876 2.62609,-2.33876 1.47527,-1.24051 1.47526,-1.24052 1.08503,-1.4739 1.08502,-1.47391 v 0.54623 0.54622 l -1.06227,2.66809 -1.06227,2.66809 -0.10015,0.23796 -0.10015,0.23797 1.22491,-0.87722 1.22491,-0.87722 3.4529,-1.1755 3.4529,-1.17551 1.35856,-0.86906 1.35857,-0.86906 v -0.23291 -0.23291 l 1.27481,-1.39484 1.27481,-1.39485 h 0.23128 0.23129 l -0.38601,0.74647 -0.38601,0.74646 -0.71259,0.8157 -0.71258,0.8157 -0.77856,1.54739 -0.77856,1.54739 -0.39657,1.07704 -0.39656,1.07705 -0.62408,2.24751 -0.62407,2.24752 -0.53129,0.85964 -0.53128,0.85963 0.48579,-0.18241 0.4858,-0.18242 1.35322,-0.80019 1.35322,-0.80019 0.91999,-0.87482 0.91999,-0.87481 0.26999,-0.49781 0.26999,-0.49781 0.16215,0.16215 0.16215,0.16215 -0.38766,0.74965 -0.38765,0.74964 -0.61483,2.12163 -0.61482,2.12163 -1.17403,2.33834 -1.17403,2.33834 -1.00128,1.49967 -1.00129,1.49968 -0.63659,0.68735 -0.63659,0.68736 h 0.31286 0.31286 l 1.24118,-0.53395 1.24119,-0.53394 0.12442,0.12442 0.12442,0.12441 -1.06933,0.82875 -1.06932,0.82875 -1.74962,1.99943 -1.74963,1.99943 -1.99957,2.11523 -1.99957,2.11522 1.18346,-0.83013 1.18346,-0.83013 0.11703,0.11703 0.11703,0.11704 -0.73811,1.46331 -0.73811,1.46331 0.005,0.40219 0.005,0.40218 0.87109,-1.03873 0.8711,-1.03873 2.4358,-1.47964 2.4358,-1.47964 1.17787,-0.67348 1.17787,-0.67349 1.14933,-0.99475 1.14934,-0.99474 h 0.40329 0.40329 l -0.51864,0.56238 -0.51862,0.56238 -1.14959,2.47348 -1.14959,2.47349 v 0.0702 0.0702 l 1.398,-0.84184 1.39801,-0.84183 0.71627,-0.15732 0.71628,-0.15732 0.65911,-1.41959 0.65911,-1.41959 1.08236,-2.7494 1.08236,-2.74941 0.87284,-2.88414 0.87284,-2.88413 0.62823,-2.9896 0.62823,-2.98961 0.43128,-2.62443 0.43128,-2.62444 0.0593,-7.74833 0.0593,-7.74833 0.51738,-0.0787 0.51739,-0.0787 0.1927,0.70358 0.1927,0.70358 -0.014,6.24865 -0.0141,6.24866 -0.42141,3.17833 -0.42141,3.17833 -0.63289,3.12519 -0.63289,3.12519 -0.84498,2.8716 -0.84499,2.8716 -0.80783,2.19743 -0.80784,2.19744 -0.81488,1.90758 -0.81488,1.90758 1.41508,-0.36775 1.41508,-0.36775 1.73463,-0.85248 1.73462,-0.85248 h 0.0902 0.0902 l -0.61462,0.81233 -0.61462,0.81232 -1.01723,2.21005 -1.01724,2.21005 -1.10516,1.54875 -1.10517,1.54876 -0.88463,0.4764 -0.88463,0.4764 0.13933,0.22545 0.13933,0.22544 1.6575,-0.0599 1.65748,-0.0599 0.43741,0.0358 0.43741,0.0358 v 0.24995 0.24994 h -0.57387 -0.57387 l -1.8631,1.14809 -1.86311,1.14809 -1.62465,1.1966 -1.62465,1.19661 -1.35177,0.82541 -1.35177,0.82541 -0.89774,0.16146 -0.89775,0.16147 1.74962,0.52491 1.74963,0.52491 0.96985,0.1601 0.96985,0.16009 -0.22001,0.19853 -0.22002,0.19853 -1.24973,0.30217 -1.24973,0.30218 -1.51929,0.60662 -1.51929,0.60662 -0.60525,0.004 -0.60526,0.004 -0.32189,0.20423 -0.32189,0.20422 1.44665,0.30963 1.44665,0.30963 0.44104,0.12517 0.44103,0.12518 -0.14335,0.23196 -0.14335,0.23195 h -0.75524 -0.75523 l -3.3701,1.42183 -3.37011,1.42184 0.67428,0.35329 0.67428,0.35329 1.13302,0.16207 1.13301,0.16207 0.0929,0.27884 0.093,0.27883 -1.19691,0.16288 -1.19692,0.16288 -3.18293,1.0748 -3.18293,1.07479 -0.17051,0.17052 -0.17052,0.17051 h 1.43112 1.43111 l -0.13736,0.22225 -0.13736,0.22226 -0.59707,0.14986 -0.59707,0.14985 -2.21719,1.35833 -2.21719,1.35833 -1.7385,0.55734 -1.7385,0.55734 -1.63577,1.0557 -1.63578,1.05569 -2.52872,1.39773 -2.52873,1.39775 -3.34501,1.47798 -3.34501,1.47798 -3.0801,1.0372 -3.08011,1.0372 -3.5425,0.86984 -3.5425,0.86984 -3.37524,0.52209 -3.37525,0.52209 -6.74855,0.0815 -6.748548,0.0815 -2.124543,-0.23254 z m 6.367403,-1.22377 0.44617,-0.49301 -0.11528,-1.94396 -0.11528,-1.94397 -0.42354,-0.81232 -0.42355,-0.81233 h -0.82302 -0.82303 l -1.286889,-0.38216 -1.286888,-0.38216 -0.510895,0.31905 -0.510895,0.31906 -0.145919,0.45976 -0.145921,0.45975 0.166399,0.88699 0.166399,0.88699 0.482207,0.89969 0.482206,0.89969 v 0.39333 0.39334 l 0.338995,0.4636 0.338992,0.4636 1.098199,0.17775 1.0982,0.17776 0.77358,0.0313 0.77359,0.0313 z m 9.37431,-0.22429 1.36981,-0.15839 0.35127,-1.52053 0.35128,-1.52053 -0.17533,-1.40329 -0.17532,-1.40328 -0.5553,-0.82494 -0.5553,-0.82493 -0.74051,-0.35425 -0.74051,-0.35425 -0.24995,-0.32019 -0.24994,-0.32018 -1.41442,-0.52225 -1.41442,-0.52225 -0.30122,-0.36295 -0.30123,-0.36295 -0.46129,0.58644 -0.4613,0.58645 -0.11842,4.4057 -0.11843,4.40571 1.0266,0.61219 1.02659,0.61218 1.26877,-0.13756 1.26877,-0.13757 z m -29.860322,-3.68728 -0.378274,-0.90533 v -0.0521 -0.0521 l -1.10607,-0.79432 -1.106072,-0.79432 -0.246184,-0.81021 -0.246187,-0.81022 -0.151043,-0.68281 -0.15104,-0.6828 -0.733807,-0.37947 -0.733805,-0.37946 h -0.581662 -0.581665 l -0.555506,-0.38909 -0.555508,-0.3891 v -1.47156 -1.47157 l -0.580552,-0.67493 -0.580553,-0.67494 -0.90611,0.16999 -0.90611,0.16999 -1.036447,0.86592 -1.03645,0.86593 H 69.65715 69.289449 l -0.483461,-0.25874 -0.483461,-0.25874 0.0078,-0.67856 0.0078,-0.67855 0.615785,-0.99979 0.615783,-0.99978 0.0013,-0.43741 0.0012,-0.43741 h -0.228828 -0.228826 l -2.041808,1.8746 -2.041809,1.8746 h -0.603745 -0.603747 v -0.59027 -0.59027 l 0.999785,-2.13348 0.999785,-2.13349 v -0.86173 -0.86172 l -0.473036,-0.4281 -0.473036,-0.42809 -0.714209,-0.18105 -0.714209,-0.18105 -0.65233,-1.33028 -0.652329,-1.33029 -0.347456,-0.22003 -0.347455,-0.22002 -0.540161,-0.004 -0.540159,-0.004 -0.611431,0.72664 -0.611429,0.72665 -0.160745,1.00524 -0.160745,1.00524 -0.392656,0.39266 -0.392656,0.39265 h -0.465194 -0.465195 l -0.156444,-0.49291 -0.156447,-0.49291 0.663855,-1.13278 0.663852,-1.13278 0.200812,-1.61921 0.200809,-1.61922 -0.287658,-1.08725 -0.287655,-1.08724 -0.671216,-0.79175 -0.671216,-0.79174 h -0.09721 -0.09721 l 0.0186,1.93708 0.0186,1.93709 -0.293157,1.49967 -0.293157,1.49968 -0.64828,1.20826 -0.648281,1.20825 1.191384,1.36963 1.191384,1.36962 4.873952,5.13006 4.873951,5.13005 2.874382,1.44815 2.874382,1.44816 1.624651,0.68965 1.62465,0.68964 2.999355,1.07683 2.999355,1.07682 0.440761,0.0126 0.44076,0.0126 -0.378274,-0.90533 z m 38.068002,-0.23855 0.32947,-0.98065 0.14161,-1.65642 0.14161,-1.65642 -0.53141,-1.71786 -0.53142,-1.71785 -1.12691,-1.8632 -1.12691,-1.8632 v -0.21361 -0.21361 l -0.24995,0.15448 -0.24994,0.15447 2.1e-4,2.04731 2e-4,2.0473 0.25889,2.74941 0.25888,2.74941 0.25817,0.96603 0.25817,0.96603 0.6146,0.6146 0.61459,0.61459 0.30534,-0.10007 0.30533,-0.10008 z m 7.28262,0.61784 1.04054,-0.31175 0.22888,-0.42767 0.22888,-0.42767 -0.36871,-1.41558 -0.36871,-1.41558 -0.40905,-0.79969 -0.40905,-0.79969 -0.68174,-0.87482 -0.68173,-0.87481 -0.52271,-0.99978 -0.5227,-0.99979 -0.005,3.49925 -0.005,3.49925 0.2505,1.12475 0.2505,1.12476 0.12042,0.33837 0.12041,0.33836 0.34679,-0.13307 0.3468,-0.13308 z m -37.607602,-3.22098 0.450435,-0.49773 -0.23307,-0.81266 -0.23307,-0.81267 -1.202061,-0.17194 -1.202062,-0.17195 -0.491501,-0.44481 -0.491505,-0.4448 -0.226576,0.36498 -0.226579,0.36498 1.546835,1.56216 1.546833,1.56217 h 0.155941 0.155941 z m 6.292274,0.0811 -0.166632,-0.16663 -0.166631,0.16663 -0.16663,0.16663 h 0.333261 0.333261 z m 41.594328,-1.58299 3.16567,-1.49968 h 0.359 0.35899 l 0.45568,-0.3332 0.45568,-0.3332 -1.19051,-0.33332 -1.19052,-0.33333 h -1.0517 -1.0517 l -1.68028,0.59319 -1.68027,0.59319 -0.98445,0.84265 -0.98445,0.84265 v 0.33759 0.33759 l 0.39277,0.39277 0.39278,0.39277 h 0.53382 0.53382 z m -35.71891,0.84919 0.41826,-0.12089 0.78801,-1.228 0.788,-1.228 -0.0348,-1.82307 -0.0348,-1.82308 0.16081,-0.75546 0.16081,-0.75547 -0.45743,-0.40718 -0.45742,-0.40719 -1.24974,-0.12344 -1.24973,-0.12344 -2.55811,-0.26522 -2.558113,-0.26523 -0.485623,-0.2599 -0.485623,-0.2599 -0.412171,0.15817 -0.412174,0.15817 -0.230798,0.60704 -0.2308,0.60705 v 0.52199 0.52199 l 0.622638,1.31615 0.622637,1.31615 0.475815,2.04344 0.475815,2.04344 0.282389,0.28239 0.282389,0.28239 1.30608,0.16882 1.306081,0.16881 1.374708,-0.11482 1.3747,-0.11482 z m 29.90493,-3.34866 0.57959,-1.12475 -0.1305,-1.12476 -0.1305,-1.12476 -0.88649,-3.11122 -0.8865,-3.11123 -0.0158,-0.63797 -0.0159,-0.63797 -0.23629,0.59007 -0.2363,0.59008 -0.25866,2.97899 -0.25867,2.979 0.27989,2.04424 0.2799,2.04423 0.24777,0.46297 0.24777,0.46297 0.42055,-0.0776 0.42055,-0.0776 z m -17.57657,-0.27559 0.72103,-0.34927 0.72398,-2.87438 0.72398,-2.87438 0.17094,-1.7964 0.17094,-1.7964 -1.50506,-0.26525 -1.50506,-0.26525 -0.88515,-0.24771 -0.88514,-0.2477 -0.86448,-0.65622 -0.86448,-0.65623 0.62487,0.14031 0.62486,0.14032 1.18214,0.30426 1.18214,0.30425 1.74191,-0.3113 1.74191,-0.31129 0.9246,-0.47139 0.9246,-0.47139 0.21298,0.13163 0.21298,0.13163 0.006,-1.32697 0.006,-1.32697 0.24419,-1.12476 0.24419,-1.12475 0.28207,-1.06228 0.28208,-1.06227 h 0.21746 0.21747 l 0.001,0.68735 0.001,0.68736 0.24945,0.87481 0.24945,0.87481 0.2538,0.37492 0.2538,0.37492 0.37017,-0.48518 0.37017,-0.48518 v -1.44014 -1.44015 l -0.2928,-0.64261 -0.29279,-0.64262 -0.51953,-0.0929 -0.51953,-0.0929 -1.62465,-0.292 -1.62465,-0.29201 -1.12476,-0.50853 -1.12476,-0.50853 -1.53035,-0.72525 -1.53035,-0.72525 h -0.40167 -0.40168 l -1.04314,-0.41738 -1.04314,-0.41739 -0.42231,0.52154 -0.42232,0.52153 -0.16274,2.83272 -0.16275,2.83272 -0.25145,0.87316 -0.25146,0.87316 v 1.04474 1.04475 l 0.62487,0.74261 0.62486,0.74261 v 0.0987 0.0987 l -0.67586,-0.01 -0.67586,-0.01 -0.3371,0.62487 -0.3371,0.62486 0.10249,2.48638 0.1025,2.48637 -0.3363,1.26282 -0.3363,1.26282 -0.003,0.94971 -0.003,0.94971 0.35843,0.69315 0.35844,0.69314 0.4045,0.33571 0.4045,0.3357 0.9242,0.19436 0.9242,0.19436 1.63874,-0.074 1.63874,-0.074 0.72102,-0.34927 z m -32.887878,-2.20328 0.479307,-0.47931 0.04825,-0.58296 0.04825,-0.58297 -0.02937,-0.74984 -0.02938,-0.74984 -0.810616,-0.55039 -0.810618,-0.5504 -1.062272,-0.1689 -1.062271,-0.1689 v 0.4233 0.42329 l 0.27827,0.54595 0.278267,0.54595 1.018964,1.56216 1.018963,1.56217 h 0.07747 0.07747 z m 63.974598,-1.38544 3.59199,-0.86186 0.11068,-0.11068 0.11069,-0.11069 -1.63263,-0.5433 -1.63263,-0.5433 -1.64437,-0.23287 -1.64437,-0.23288 -1.17552,0.28162 -1.17551,0.28163 -1.06088,0.60355 -1.06088,0.60356 -0.3726,0.72052 -0.3726,0.72053 0.64504,0.21501 0.64503,0.21501 1.53828,-0.072 1.53829,-0.072 z m -22.26793,-2.06819 0.10248,-1.44091 -0.74032,-2.13095 -0.74031,-2.13094 -0.66958,-1.24333 -0.66958,-1.24333 0.12445,2.19013 0.12444,2.19013 0.41267,2.24551 0.41267,2.24551 0.50625,0.6436 0.50626,0.6436 0.26405,-0.26405 0.26405,-0.26406 z m -4.19414,-1.93504 v -1.61889 l -0.62612,-0.41025 -0.62612,-0.41024 -0.36012,0.29887 -0.36012,0.29887 0.25181,0.66799 0.2518,0.668 0.62,1.06227 0.61999,1.06227 h 0.11444 0.11444 z m -17.24629,0.82964 0.87481,-0.24536 0.62486,-0.2617 0.62487,-0.26169 0.43401,-0.22079 0.43402,-0.22078 h 0.35157 0.35157 l 0.15171,-0.39536 0.15172,-0.39536 -0.011,-1.79167 -0.0109,-1.79167 -0.42647,-1.24973 -0.42646,-1.24973 -0.95481,-0.23582 -0.95481,-0.23582 -2.41947,0.32759 -2.419462,0.32759 -1.374704,0.11499 -1.374704,0.11499 -1.624651,-0.51557 -1.624651,-0.51557 -0.323288,0.43378 -0.323288,0.43378 -0.154951,0.61712 -0.154952,0.61711 0.440398,1.13251 0.440395,1.13251 0.521556,1.83669 0.521557,1.83669 0.602471,0.39476 0.602473,0.39475 1.663222,0.17014 1.663225,0.17014 1.624651,-0.11158 1.624653,-0.11158 0.87481,-0.24536 z m 35.05264,0.1019 0.38759,-0.43741 0.40099,-1.19598 0.40098,-1.19598 -0.001,-1.42845 -0.001,-1.42846 -0.1625,-2.45411 -0.1625,-2.45411 -0.46667,0.73704 -0.46667,0.73705 -1.02761,2.71685 -1.02762,2.71685 -0.0291,1.384 -0.0291,1.384 0.44317,0.67806 0.44317,0.67805 h 0.45539 0.45539 l 0.3876,-0.4374 z m -48.859914,-1.08155 0.06475,-0.60559 -0.235951,-0.36337 -0.235955,-0.36337 -0.641119,0.34312 -0.641122,0.34312 v 0.20771 0.20771 l 0.515514,0.51551 0.515514,0.51552 0.296811,-0.0974 0.296811,-0.0974 z m 65.202384,-0.22549 2.96819,-0.49471 1.49968,-0.0677 1.49968,-0.0677 -3.95945,-1.56285 -3.95945,-1.56286 -0.93828,-0.15003 -0.93829,-0.15004 -1.46731,0.30461 -1.46732,0.30461 -0.8209,0.82091 -0.82091,0.82091 0.004,0.4624 0.004,0.4624 0.22756,0.35964 0.22756,0.35964 1.70569,0.30374 1.7057,0.30375 0.781,0.024 0.781,0.024 2.96819,-0.49471 z m -78.889203,-2.10928 v -0.60443 l -0.145659,-0.37957 -0.145659,-0.37959 -0.339239,0.13018 -0.33924,0.13018 -0.416275,0.63532 -0.416278,0.63532 0.338794,0.21468 0.338797,0.21468 0.562379,0.004 0.56238,0.004 v -0.60442 z m 53.271053,-1.70758 0.75415,-0.81233 0.48149,-0.92734 0.48148,-0.92734 v -2.74231 -2.74232 l -0.76302,-2.06942 -0.76302,-2.06943 -0.28541,-2.55403 -0.2854,-2.55404 -1.03607,3.04425 -1.03608,3.04424 -0.32607,1.72838 -0.32608,1.72839 0.14751,2.9337 0.14751,2.9337 0.398,0.95256 0.398,0.95256 0.40413,0.44655 0.40413,0.44655 h 0.22529 0.2253 z m -44.562531,-0.3145 0.124883,-0.12488 -0.605022,-0.65776 -0.605023,-0.65775 -0.9748,-0.71596 -0.974801,-0.71597 h -0.359387 -0.359388 l 0.173325,1.06228 0.173325,1.06227 0.535998,0.58608 0.535997,0.58609 1.105005,-0.14976 1.105005,-0.14975 z m 52.022851,-2.31103 0.78341,-1.86633 -0.10097,-0.10096 -0.10096,-0.10097 -1.16039,0.64855 -1.16039,0.64856 -0.50227,0.63853 -0.50227,0.63853 v 0.79945 0.79945 l 0.13895,0.13894 0.13894,0.13895 0.84127,-0.25819 0.84126,-0.25819 z m 23.93792,1.39659 1.31222,-0.2878 v -0.19451 -0.19451 l -1.58236,-0.77899 -1.58235,-0.77899 -2.22933,-0.13779 -2.22932,-0.13779 -1.24767,0.47077 -1.24767,0.47077 -0.0767,0.39834 -0.0767,0.39834 1.07444,0.43029 1.07443,0.43029 0.99979,0.21427 0.99978,0.21427 1.74963,-0.11458 1.74962,-0.11458 z m -88.066623,-0.17095 0.131419,-0.21264 -0.61656,-0.8357 -0.616562,-0.8357 v -0.42365 -0.42364 l -0.484666,-0.59007 -0.484665,-0.59007 -0.523118,0.51484 -0.523118,0.51483 -0.149335,0.92024 -0.149335,0.92024 0.31374,0.37804 0.31374,0.37803 0.780892,0.22641 0.780892,0.2264 0.547627,0.0225 0.54763,0.0225 0.131419,-0.21264 z m 72.448603,-1.52814 1.38693,-1.74078 0.53339,-1.60284 0.53339,-1.60284 -0.0727,-2.16049 -0.0727,-2.16048 -1.36015,2.06735 -1.36015,2.06734 -0.8366,1.91975 -0.8366,1.91975 -0.15296,1.29149 -0.15296,1.2915 0.35014,0.22169 0.35014,0.22169 0.15192,0.004 0.15192,0.004 1.38692,-1.74079 z m -44.431568,-0.98782 2.749408,-0.47577 1.49968,-0.55588 1.49968,-0.55587 1.07286,-1.13732 1.07287,-1.13731 -0.149,-1.76604 -0.14901,-1.76603 -0.26168,-1.70246 -0.26167,-1.70245 -0.57806,-0.67204 -0.57806,-0.67203 -1.83375,10e-4 -1.83375,0.001 -1.09765,0.44848 -1.097642,0.44847 -0.901926,0.1019 -0.901924,0.1019 -1.503041,0.27718 -1.50304,0.27719 -0.68399,-0.26006 -0.683988,-0.25993 v -0.25613 -0.25613 h 0.731985 0.731985 l 0.392773,-0.39277 0.392773,-0.39278 v -0.19197 -0.19197 l 0.636626,-0.29007 0.636628,-0.29007 1.550402,-1.9e-4 1.550404,-2e-4 1.564605,-0.74018 1.56461,-0.74019 1.24729,-1.24728 1.24729,-1.24729 v -0.39301 -0.39301 l -0.65788,-0.25012 -0.65788,-0.25013 -0.48212,0.15302 -0.48211,0.15302 -0.2525,0.55417 -0.2525,0.55417 -0.53937,0.33684 -0.53937,0.33685 -2.983172,0.82629 -2.983174,0.82629 -0.234612,-0.145 -0.234612,-0.145 -1.223982,0.57328 -1.223981,0.57329 v 0.8445 0.84449 l -0.34909,0.67494 -0.349088,0.67494 -1.008023,0.80997 -1.008023,0.80997 -0.158186,0.4984 -0.158186,0.49839 0.733789,2.31586 0.73379,2.31586 0.187682,1.11596 0.187685,1.11596 0.732355,0.68412 0.732355,0.68412 1.048714,0.23521 1.048715,0.2352 0.749839,0.0251 0.749838,0.0251 z m 65.733638,-0.7392 1.74739,-0.15642 -2.87215,-1.62465 -2.87215,-1.62465 h -2.24952 -2.24952 l -0.87481,0.5139 -0.87481,0.51391 v 0.58388 0.58388 l 0.65766,0.49101 0.65765,0.49101 2.46667,0.18696 2.46668,0.18696 1.12476,0.005 1.12475,0.005 1.7474,-0.15641 z m -80.719695,-1.42179 -0.171013,-1.14041 -0.506921,-0.85916 -0.506919,-0.85917 h -0.192044 -0.192043 l -0.658079,0.99443 -0.658081,0.99442 v 0.12369 0.1237 l 1.308881,0.88145 1.308881,0.88145 h 0.219178 0.219176 z m 65.563745,0.38853 0.75187,-0.75186 0.53698,-1.43516 0.53698,-1.43517 0.0819,-2.54832 0.0819,-2.54832 0.16888,-0.32606 0.16888,-0.32606 -1.66991,1.7153 -1.6699,1.7153 -0.34785,0.83253 -0.34786,0.83254 -0.1627,2.11666 -0.1627,2.11666 0.15231,0.39691 0.15232,0.39692 h 0.48851 0.48851 z m -75.186658,-2.78629 -0.510975,-1.36569 -0.365934,-0.48495 -0.365934,-0.48494 -0.624688,0.74984 -0.624688,0.74984 -0.009,0.42713 -0.009,0.42714 1.43719,0.98263 1.437191,0.98263 0.07339,-0.30897 0.07339,-0.30896 -0.510973,-1.3657 z m 63.676938,0.0472 0.67349,-1.49142 0.31243,-0.008 0.31243,-0.008 -0.003,0.0625 -0.003,0.0625 -0.36025,1.18724 -0.36026,1.18725 h 0.0685 0.0685 l 1.23177,-0.41234 1.23177,-0.41234 0.69112,-0.48217 0.69111,-0.48217 1.45633,-1.91739 1.45633,-1.91738 0.31857,-0.60021 0.31857,-0.6002 -1.35395,0.15913 -1.35395,0.15913 -1.44209,0.49615 -1.44209,0.49615 -1.4669,0.8911 -1.4669,0.89109 -1.13994,1.26789 -1.13994,1.26789 v 0.54785 0.54784 l 0.29993,0.29994 0.29994,0.29993 h 0.71372 0.71371 l 0.67349,-1.49141 z m -75.310961,-0.65716 0.142394,-0.97576 -0.320751,-0.60512 -0.320749,-0.60513 -0.269754,-0.0888 -0.269757,-0.0888 -0.979974,0.77879 -0.979977,0.77879 v 0.20112 0.20113 l 1.249731,1.00432 1.249731,1.00432 0.178357,-0.31452 0.178354,-0.31452 z m 92.955651,-1.90218 1.1499,-1.31451 v -0.22888 -0.22889 l 1.12888,-2.02492 1.12888,-2.02493 0.42715,-0.60133 0.42714,-0.60133 -0.50365,0.26955 -0.50365,0.26955 -2.1258,2.0814 -2.12579,2.08141 -0.68939,1.47187 -0.68939,1.47187 -0.14806,0.74034 -0.14807,0.74034 0.76098,-0.39352 0.76097,-0.39351 z m 12.91445,1.46154 1.14183,-0.3589 2.10707,-1.05941 2.10706,-1.05941 -0.57892,-0.21416 -0.57892,-0.21415 -2.79495,-0.0502 -2.79495,-0.0502 -2.49946,0.68222 -2.49947,0.68222 -0.6097,0.60643 -0.6097,0.60643 0.48473,0.54101 0.48473,0.541 2.74941,-0.147 2.74941,-0.147 z m -99.995577,-0.53512 v -0.37492 h -0.360168 -0.36017 l -0.132929,0.21509 -0.132929,0.21508 0.159836,0.15984 0.159836,0.15983 h 0.333263 0.333261 z m 65.642167,-1.26572 0.84014,-0.89081 0.86363,-1.79611 0.86364,-1.79612 0.40091,-1.49968 0.4009,-1.49968 0.0234,-3.37427 0.0234,-3.37427 -0.18907,-1.83383 -0.18907,-1.83382 -1.18742,2.45869 -1.18742,2.45869 -1.23163,2.12454 -1.23163,2.12454 -0.61022,1.37471 -0.61022,1.3747 0.0367,2.01477 0.0367,2.01477 0.41338,1.42199 0.41339,1.42199 h 0.6401 0.6401 l 0.84014,-0.8908 z m -13.73977,-1.23374 0.89731,-0.37492 h 0.61999 0.61999 l 1.2025,-0.67595 1.2025,-0.67596 1.05345,-2.63583 1.05346,-2.63583 0.12579,-0.9373 0.1258,-0.9373 h 0.21704 0.21704 l 10e-4,0.9373 0.002,0.9373 0.38249,-0.73347 0.38248,-0.73347 0.21716,-0.96649 0.21715,-0.96649 -0.23404,-0.84762 -0.23404,-0.84761 -0.50764,-0.16112 -0.50764,-0.16112 -1.561,-1.18152 -1.56101,-1.18153 -1.56858,-0.44012 -1.56858,-0.44012 -0.41662,0.18489 -0.41662,0.18489 -3.24041,0.14631 -3.24041,0.14631 -0.57951,0.86151 -0.57951,0.86152 -0.92379,0.51818 -0.92378,0.51819 -0.42909,1.11976 -0.42908,1.11976 -0.0179,0.99979 -0.0179,0.99978 -0.37041,1.74873 -0.37041,1.74872 0.37308,1.28337 0.37308,1.28337 0.49325,0.59213 0.49324,0.59212 0.008,-0.34118 0.008,-0.34118 0.6576,0.43088 0.65761,0.43088 0.77958,0.0752 0.77959,0.0752 1.99957,0.28023 1.99957,0.28023 0.24994,0.0975 0.24995,0.0975 0.57041,0.0197 0.57041,0.0197 0.8973,-0.37492 z m 1.80276,-8.63153 -1.15803,-0.19177 -0.71656,-0.45347 -0.71656,-0.45348 -1.12476,-0.98103 -1.12475,-0.98103 -1.61075,-0.76122 -1.61074,-0.76123 0.27141,-0.0905 0.27141,-0.0905 1.51891,0.51168 1.51891,0.51168 h 0.26915 0.26916 l -0.17168,-0.91513 -0.17168,-0.91513 0.47279,0.18394 0.47278,0.18393 1.36001,0.27541 1.36,0.2754 0.098,-0.29405 0.098,-0.29405 h 0.31795 0.31794 l 1.59831,1.45971 1.59831,1.4597 0.71126,0.17571 0.71126,0.17571 0.34806,-0.28886 0.34805,-0.28886 0.15589,0.40626 0.1559,0.40625 -0.26738,0.32217 -0.26738,0.32217 -1.07281,0.52026 -1.07279,0.52027 -0.99979,0.12088 -0.99978,0.12088 z m 26.19413,6.5901 -0.0448,-0.0448 -0.87312,0.17719 -0.87311,0.1772 -0.078,0.93537 -0.078,0.93536 0.99595,-1.06771 0.99596,-1.06772 z m 14.02865,0.90313 1.52766,-0.76339 0.98999,-1.18243 0.98999,-1.18243 1.28033,-2.08612 1.28032,-2.08611 -0.096,-0.096 -0.096,-0.096 -2.47482,1.43644 -2.47481,1.43644 -1.13081,1.12932 -1.13081,1.12933 -0.70163,1.20396 -0.70163,1.20395 0.13745,0.35821 0.13746,0.35821 h 0.46782 0.46781 z m 10.42462,-2.26404 1.49968,-0.56844 2.06206,-2.0441 2.06205,-2.0441 v -0.29088 -0.29087 l -0.4709,0.25202 -0.4709,0.25202 -2.39537,0.62237 -2.39537,0.62237 -1.03275,0.52686 -1.03274,0.52687 -1.09991,1.01386 -1.09991,1.01386 v 0.4264 0.4264 l 0.18746,0.19257 0.18746,0.19257 1.24973,-0.13067 1.24974,-0.13067 z m -15.83674,-1.10746 1.71478,-1.38548 v -0.13642 -0.13642 l -0.74164,0.62405 -0.74165,0.62405 -1.3829,0.79122 -1.3829,0.79121 v 0.10663 0.10663 h 0.40977 0.40976 z m -5.278,-2.12317 1.61894,-0.54789 1.89057,-0.94936 1.89057,-0.94937 3.85819,-2.51775 3.85819,-2.51774 -0.15693,-0.003 -0.15694,-0.003 -0.84982,0.35508 -0.84982,0.35508 -4.49206,0.28064 -4.49206,0.28064 -1.60311,0.52304 -1.6031,0.52304 -1.77117,1.54532 -1.77117,1.54532 -0.56238,0.83213 -0.56238,0.83213 v 0.4446 0.4446 l 0.43741,0.12994 0.4374,0.12994 1.63037,-0.0923 1.63037,-0.0923 1.61893,-0.54789 z m -10.226,-2.50479 0.49453,-0.26466 1.07307,-1.67411 1.07308,-1.6741 0.55143,-1.65707 0.55144,-1.65707 0.23494,-2.84028 0.23495,-2.84027 -5e-4,-2.12455 -5e-4,-2.12454 -1.23941,2.20816 -1.23942,2.20816 -0.91102,1.24107 -0.91103,1.24107 -0.74329,2.29953 -0.74329,2.29954 0.17089,2.22868 0.17088,2.22868 0.22174,0.58322 0.22174,0.58321 h 0.14759 0.14759 l 0.49453,-0.26467 z m 16.60389,-6.8718 1.4897,-0.38791 1.12476,-0.65524 1.12476,-0.65523 1.62465,-1.20931 1.62465,-1.2093 1.3747,-1.72783 1.37471,-1.72783 1.20185,-1.51853 1.20185,-1.51853 h -0.15625 -0.15626 l -0.79565,0.59293 -0.79565,0.59293 -2.49946,1.26401 -2.49946,1.26401 -1.49968,0.42605 -1.49968,0.42603 -1.33511,0.58777 -1.33512,0.58777 -1.8517,1.7955 -1.8517,1.79549 v 0.42704 0.42705 l 0.31243,0.25366 0.31244,0.25365 0.49989,0.12288 0.49989,0.12287 0.50987,0.029 0.50986,0.029 z m -20.71386,-1.27839 -0.16663,-0.16663 v 0.33326 0.33326 l 0.16663,-0.16663 0.16663,-0.16663 z m 13.76647,-1.6083 0.73597,-0.8495 0.89805,-1.31753 0.89806,-1.31754 0.67852,-1.43187 0.67852,-1.43188 1.05849,-3.01642 1.05848,-3.01641 0.55886,-1.1077 0.55886,-1.1077 -0.59309,0.51478 -0.59309,0.51477 -2.87438,2.65294 -2.87438,2.65293 -0.85624,1.41593 -0.85624,1.41592 -0.58095,2.00577 -0.58096,2.00578 v 1.08017 1.08017 l 0.25166,0.66191 0.25166,0.66191 0.72312,-0.60846 0.72312,-0.60847 z m 8.13462,-6.75842 1.05231,-0.53507 1.42842,-0.96796 1.42842,-0.96796 0.91593,-0.93395 0.91594,-0.93394 1.34235,-2.07076 1.34236,-2.07076 v -0.11312 -0.11311 l -1.40254,0.62026 -1.40253,0.62027 -1.58859,0.49066 -1.5886,0.49067 -0.71716,0.37086 -0.71717,0.37086 -0.71523,0.93773 -0.71524,0.93773 -0.45043,1.36531 -0.45042,1.36533 v 0.83601 0.83601 h 0.13493 0.13493 z m -146.437843,27.24588 -1.021651,-0.22986 -0.829604,-0.80565 -0.829604,-0.80565 -0.6412744,-1.3747 -0.641273,-1.3747 -0.09581,-2.79339 -0.09581,-2.79338 0.417073,-2.05834 0.417072,-2.05834 0.7019494,-1.54811 0.70195,-1.54812 0.893551,-0.98905 0.893551,-0.98906 1.20063,-0.64172 1.20063,-0.64171 0.906457,-0.16067 0.906456,-0.16067 0.631706,0.24017 0.631706,0.24018 0.523894,0.56233 0.523895,0.56233 v 0.9479 0.94789 l -0.663552,0.16654 -0.663551,0.16654 -0.398721,-0.2545 -0.39872,-0.2545 v -0.76041 -0.76041 l -0.166052,-0.1669 -0.166053,-0.16691 -0.544948,0.29165 -0.544947,0.29165 -0.622479,1.35967 -0.622479,1.35967 -0.516827,2.43056 -0.516827,2.43056 -0.0018,2.74941 -0.0018,2.7494 0.557054,1.43504 0.557055,1.43502 0.538357,0.37709 0.538357,0.37707 h 0.530513 0.530512 l 0.427014,-0.47184 0.427014,-0.47184 0.495089,-1.30297 0.495089,-1.30297 0.500714,-2.91168 0.500715,-2.91168 0.739312,-9.24801 0.739313,-9.24801 0.0012,-1.82854 0.0011,-1.82854 -0.249302,-0.46583 -0.249303,-0.46583 0.649579,-0.51095 0.649578,-0.51096 0.819092,-0.15367 0.819091,-0.15366 0.746499,0.38603 0.746498,0.38603 0.440765,0.92884 0.440765,0.92885 -0.138678,4.51849 -0.1387,4.5185 -0.893227,6.96869 -0.893227,6.9687 0.0038,2.40429 0.0038,2.40429 0.220893,0.34886 0.220893,0.34885 0.388853,-0.14922 0.388853,-0.14922 0.509159,-0.99803 0.509159,-0.99803 0.640379,-1.95102 0.640379,-1.95101 0.45989,-1.99957 0.459889,-1.99957 0.177626,-1.74543 0.177625,-1.74543 0.501915,-1.62884 0.501916,-1.62884 0.489489,-0.96215 0.489489,-0.96215 1.044515,-1.13759 1.044515,-1.13758 1.499678,-0.71197 1.499677,-0.71196 0.706578,-2e-4 0.706581,-2e-4 0.712229,0.71224 0.712232,0.71223 0.183156,0.9749 0.183158,0.97491 -0.273671,1.5992 -0.273669,1.5992 -0.807684,1.6501 -0.807683,1.6501 -1.832831,1.84033 -1.832831,1.84033 v 0.67625 0.67626 l 0.374394,1.26072 0.374395,1.26072 0.518558,0.65924 0.518559,0.65924 h 0.63971 0.639707 l 0.791967,-0.48946 0.791965,-0.48946 0.817287,-1.13805 0.817286,-1.13805 0.848046,-1.83549 0.848045,-1.83548 0.512902,-1.86954 0.512902,-1.86955 0.183871,-1.47849 0.183873,-1.4785 0.530326,-0.0757 0.530323,-0.0757 0.117752,0.32565 0.117752,0.32565 -0.326402,1.89416 -0.326402,1.89416 -0.659971,2.10497 -0.65997,2.10498 -0.969547,1.8746 -0.969546,1.8746 -0.773627,0.93848 -0.773628,0.93848 -1.06981,0.73605 -1.069808,0.73605 -1.15089,0.2898 -1.15089,0.28979 -1.230288,-0.29514 -1.23029,-0.29514 -0.816816,-0.79437 -0.816816,-0.79438 -0.560754,-1.2048 -0.560754,-1.20481 -0.559216,1.7047 -0.559216,1.7047 -0.732976,1.49967 -0.732976,1.49968 -0.649854,0.68158 -0.649854,0.68157 -0.797582,0.26323 -0.797582,0.26322 -0.636866,-0.24214 -0.636867,-0.24213 -0.543387,-0.57769 -0.543388,-0.57769 -0.381746,-0.87481 -0.381748,-0.87482 -0.441467,1.26255 -0.441467,1.26255 -0.394256,0.7624 -0.394256,0.76241 -0.880748,0.77331 -0.880747,0.77331 -0.944131,0.26218 -0.944129,0.26219 -0.374919,-0.0254 -0.37492,-0.0254 z m 21.45937,-16.93176 0.875107,-0.96864 0.632294,-1.09341 0.632291,-1.09342 0.396283,-1.35758 0.39628,-1.35759 v -1.0517 -1.0517 l -0.442375,-0.54631 -0.442378,-0.54631 -0.647655,0.50944 -0.647656,0.50945 -0.565546,1.31465 -0.565546,1.31464 -0.465682,2.25626 -0.465683,2.25626 -0.0033,0.9373 -0.0033,0.9373 h 0.220863 0.220862 z m 23.453999,13.07041 -1.348553,-0.36265 -1.233259,-0.67122 -1.233263,-0.67123 -1.312875,-1.41806 -1.312877,-1.41806 -0.66389,-1.13285 -0.66389,-1.13284 -0.735632,-2.21002 -0.735632,-2.21003 -0.301412,-2.62443 -0.301413,-2.62444 0.168149,-3.87416 0.168151,-3.87417 0.381238,-2.62444 0.381238,-2.62443 0.505047,-1.99957 0.505046,-1.99957 0.880236,-2.37449 0.880235,-2.37449 1.356356,-2.62444 1.356356,-2.62443 1.241591,-1.68788 1.24159,-1.68787 1.687872,-1.24803 1.687875,-1.24804 1.374704,-0.53972 1.374704,-0.53973 1.749624,-0.009 1.749624,-0.009 1.124758,0.50853 1.124758,0.50852 0.79068,0.6684 0.79068,0.6684 0.934364,1.40768 0.934367,1.40769 0.629377,1.77512 0.62938,1.77513 0.0025,2.62444 0.0025,2.62443 -0.56729,1.44948 -0.567291,1.44947 -0.58122,0.67507 -0.581217,0.67507 -1.600516,-0.004 -1.600513,-0.004 -0.683528,-0.44786 -0.683528,-0.44787 -0.143649,-0.37434 -0.143649,-0.37435 0.65035,-1.19491 0.65035,-1.1949 0.377851,-1.603 0.377849,-1.603 0.0037,-2.01669 0.0037,-2.01669 -0.402838,-1.35758 -0.402838,-1.35759 -0.488568,-0.68675 -0.48857,-0.68676 -0.600548,-0.15073 -0.600549,-0.15072 -0.865164,0.5347 -0.865166,0.5347 -1.153479,1.55223 -1.15348,1.55223 -1.217381,2.49974 -1.21738,2.49975 -0.774461,2.33704 -0.774459,2.33704 -0.608966,3.0368 -0.608967,3.03681 -0.295599,3.20499 -0.295601,3.20499 0.13664,3.66853 0.136641,3.66853 0.527927,1.83176 0.527926,1.83177 0.763073,1.51164 0.763074,1.51164 1.114258,1.19123 1.114255,1.19123 1.286628,0.5535 1.286631,0.55349 1.39485,-0.1009 1.394853,-0.10089 1.178791,-0.57064 1.178792,-0.57065 1.253425,-1.12694 1.253428,-1.12693 1.379459,-2.0732 1.379458,-2.0732 1.235769,-2.61983 1.235772,-2.61983 1.136418,-3.31776 1.136418,-3.31775 0.8726,-3.53952 0.872597,-3.53952 0.383613,-2.61201 0.383615,-2.61201 0.387934,-1.35978 0.387937,-1.35977 0.830199,-1.64856 0.830199,-1.64856 1.164854,-1.2956 1.164855,-1.29559 1.552006,-0.76405 1.552006,-0.76405 0.868678,-0.13037 0.868678,-0.13036 0.869831,0.44937 0.869828,0.44936 0.567363,0.84929 0.56736,0.84929 v 0.6987 0.6987 l -0.555508,0.3891 -0.555505,0.38909 h -0.405545 -0.405537 l -0.43258,-0.478 -0.432579,-0.47799 0.08141,-0.83422 0.08141,-0.83423 -0.529192,-0.0755 -0.529193,-0.0755 -0.628755,0.74723 -0.628755,0.74723 -0.783481,2.16527 -0.783484,2.16526 -0.39596,2.28692 -0.395958,2.28693 0.09146,3.37632 0.09146,3.37633 0.680674,1.39125 0.680676,1.39125 0.634736,0.3397 0.634736,0.3397 0.680571,-0.23774 0.680571,-0.23774 0.673958,-1.25312 0.673955,-1.25312 0.610241,-2.36669 0.610239,-2.36668 0.174965,-1.06227 0.174965,-1.06227 h -0.478295 -0.478292 l -0.512228,-0.56238 -0.512227,-0.56238 -0.281182,-0.54595 -0.281179,-0.54595 v -0.87948 -0.87948 l 0.282369,-0.61973 0.282369,-0.61974 0.654929,-0.24341 0.654929,-0.24341 0.434075,-0.13928 0.434074,-0.13928 0.635718,0.55326 0.635718,0.55326 0.305792,1.67466 0.305789,1.67467 0.998908,-0.44878 0.998905,-0.44877 0.821304,-0.69328 0.8213,-0.69329 0.334563,-0.65758 0.334564,-0.65758 0.297448,-2.49946 0.29745,-2.49947 0.0464,-1.77024 0.0464,-1.77025 -0.35011,-0.65821 -0.350105,-0.65821 0.307305,-0.37028 0.30732,-0.37029 1.09428,-0.41791 1.09429,-0.41791 0.8665,0.16255 0.8665,0.16256 0.74355,0.84685 0.74355,0.84686 0.17897,1.05935 0.17898,1.05935 1.05401,-2.02425 1.05401,-2.02426 0.90614,-1.10582 0.90614,-1.10582 0.8609,-0.40852 0.8609,-0.40853 h 0.94237 0.94237 l 1.03708,1.08236 1.03708,1.08235 0.46905,1.60457 0.46905,1.60457 -0.006,2.62443 -0.006,2.62444 -0.57778,4.02533 -0.57777,4.02533 0.17093,0.91111 0.17092,0.9111 h 0.73346 0.73345 l 0.74976,-1.31222 0.74976,-1.31221 1.01319,-3.09928 1.01319,-3.09927 0.48641,-2.64949 0.48641,-2.64949 0.49908,-2.97043 0.49909,-2.97043 -0.63079,-0.74965 -0.63079,-0.74965 -0.48795,-0.95646 -0.48794,-0.95645 v -1.07613 -1.07613 l 0.45672,-0.8516 0.45671,-0.8516 0.8516,-0.45671 0.85161,-0.45672 h 0.81622 0.81623 l 0.48595,0.48595 0.48595,0.48595 0.16341,0.87108 0.16342,0.87108 -0.28717,1.32989 -0.28717,1.32989 0.41394,0.24995 0.41395,0.24994 1.55112,1.15988 1.55112,1.15988 1.54372,1.6847 1.54373,1.6847 0.75806,1.51701 0.75806,1.51701 0.15276,0.95531 0.15276,0.95531 0.18771,0.116 0.1877,0.11601 0.76963,-2.1836 0.76963,-2.1836 0.27314,-1.07688 0.27313,-1.07689 0.35648,-3.1722 0.35647,-3.17221 0.005,-1.16939 0.005,-1.16939 -0.41225,-0.41225 -0.41225,-0.41225 0.65113,-0.65112 0.65113,-0.65113 1.50604,-0.10894 1.50604,-0.10893 0.85375,0.85375 0.85376,0.85376 0.27431,0.98805 0.27432,0.98806 -0.003,1.49968 -0.003,1.49967 -0.36278,2.49947 -0.36278,2.49946 -0.49417,2.55421 -0.49416,2.55421 -0.16894,1.49317 -0.16893,1.49316 0.16437,0.65488 0.16436,0.65487 0.67863,-0.0782 0.67847,-0.0782 0.68125,-1.24973 0.68125,-1.24974 0.87563,-2.62443 0.87564,-2.62444 0.51913,-2.20635 0.51914,-2.20635 0.35879,-3.04252 0.35878,-3.04252 0.002,-1.92233 0.002,-1.92233 -0.24995,-0.15448 -0.24994,-0.15447 v -0.36385 -0.36384 l 0.81232,-0.49528 0.81233,-0.49529 1.32358,-9.9e-4 1.32358,-0.001 0.62725,0.62725 0.62726,0.62726 0.36117,0.86439 0.36116,0.86439 v 2.36266 2.36265 l -0.64409,3.70657 -0.64408,3.70657 -0.33967,2.16614 -0.33967,2.16614 0.18941,0.70825 0.1894,0.70824 0.43144,0.0831 0.43144,0.0831 0.40508,-0.33307 0.40507,-0.33308 0.71028,-1.56242 0.71028,-1.56241 0.63257,-1.93683 0.63258,-1.93683 0.50554,-1.97877 0.50555,-1.97877 0.23045,-2.02037 0.23045,-2.02037 0.38635,-1.49968 0.38634,-1.49968 0.86438,-1.83272 0.86439,-1.83272 1.56469,-1.56342 1.5647,-1.56343 1.44657,-0.54051 1.44657,-0.5405 h 0.95391 0.95391 l 0.66391,0.61529 0.66391,0.61529 0.2474,0.65071 0.2474,0.65071 v 1.56302 1.56301 l -0.40303,1.35758 -0.40302,1.35759 -0.70034,1.38768 -0.70034,1.38768 -1.03881,1.31419 -1.03881,1.31419 -1.35612,1.04732 -1.35612,1.04732 -10e-4,0.67505 -0.001,0.67505 0.28074,1.32452 0.28074,1.32452 0.47231,0.93365 0.47231,0.93364 0.57262,0.37519 0.57261,0.37519 0.80026,-0.22951 0.80027,-0.22951 0.67721,-0.5327 0.67721,-0.53269 0.97369,-1.29586 0.97369,-1.29587 0.71537,-1.41713 0.71537,-1.41713 0.51327,-1.33288 0.51328,-1.33288 0.50248,-1.8746 0.50247,-1.87459 0.87219,-9.37299 0.8722,-9.37298 0.15729,-3.31815 0.15729,-3.31814 -0.34538,-0.64536 -0.3454,-0.64535 0.58016,-0.469786 0.58017,-0.46978 0.99239,-0.26722 0.99239,-0.26723 0.82178,0.27122 0.82179,0.27121 0.50202,0.55513 0.50202,0.555116 0.28458,0.84963 0.28457,0.84962 -0.002,2.89957 -0.002,2.89957 -0.37515,3.37428 -0.37514,3.37427 -1.02382,7.12347 -1.02381,7.12347 -0.0358,3.17186 -0.0358,3.17187 0.31931,0.32176 0.31931,0.32177 0.43053,-0.25541 0.43052,-0.2554 0.78821,-1.59056 0.7882,-1.59056 0.64375,-2.02259 0.64376,-2.02258 0.5082,-1.9891 0.5082,-1.98909 0.39309,-2.50994 0.3931,-2.50994 0.62202,-1.87219 0.62202,-1.8722 0.85359,-1.40516 0.85359,-1.40516 1.14628,-1.05661 1.14629,-1.05661 1.29351,-0.57971 1.29351,-0.5797 0.74983,-0.15322 0.74984,-0.15321 1.10108,0.56785 1.10107,0.56786 0.50101,0.88621 0.50101,0.88621 -0.17179,0.68445 -0.17179,0.68446 -0.61797,0.28156 -0.61797,0.28157 -0.64594,-0.29431 -0.64594,-0.29431 0.0836,-1.05266 0.0836,-1.05265 -0.45601,-0.0898 -0.456,-0.0898 -0.51905,0.45932 -0.51905,0.45931 -0.6967,1.52274 -0.69669,1.52274 -0.50447,1.97651 -0.50447,1.97651 -0.24109,2.62443 -0.24109,2.62444 0.19604,1.87459 0.19604,1.8746 0.33077,1.08571 0.33077,1.08571 0.67856,0.7264 0.67857,0.7264 h 0.59394 0.59395 l 0.52018,-0.36435 0.52018,-0.36434 0.53949,-1.2541 0.5395,-1.25409 0.59664,-2.31821 0.59664,-2.31822 0.14107,-0.80432 0.14108,-0.80432 -0.84765,-0.40224 -0.84765,-0.40223 -0.39423,-0.83079 -0.39424,-0.83078 v -0.91194 -0.91194 l 0.36491,-0.70565 0.36491,-0.70566 0.57239,-0.15333 0.57239,-0.15333 0.68159,-0.003 0.68159,-0.003 0.41788,0.63775 0.41787,0.63777 0.27524,1.49514 0.27524,1.49514 1.31261,-0.65578 1.31261,-0.65577 0.7579,-0.91475 0.75791,-0.91475 0.11651,-0.56237 0.11665,-0.56226 0.13369,-0.64062 0.13369,-0.64063 0.67649,0.0782 0.6765,0.0782 0.0882,0.46461 0.0882,0.46461 -0.41974,1.09908 -0.41974,1.09907 -1.12735,1.12734 -1.12734,1.12735 -1.70364,0.80822 -1.70363,0.80821 -0.40703,2.21482 -0.40703,2.21482 -0.52017,1.53438 -0.52017,1.53437 -0.7069,1.24973 -0.7069,1.24973 -0.75758,0.82233 -0.75758,0.82233 -1.06723,0.4844 -1.06723,0.4844 h -1.12475 -1.12476 l -0.99979,-0.45534 -0.99978,-0.45534 -0.90711,-1.00615 -0.9071,-1.00615 -0.53009,-1.41678 -0.53008,-1.41678 -0.0159,-0.30306 -0.0159,-0.30305 -0.80708,2.37449 -0.80708,2.37449 -0.64504,1.3747 -0.64504,1.3747 -0.7988,1.08398 -0.79879,1.08397 -1.11981,0.49534 -1.1198,0.49534 -0.68703,-0.1509 -0.68704,-0.15089 -0.67549,-0.62635 -0.67549,-0.62635 -0.46923,-0.92704 -0.46924,-0.92704 -0.17414,-0.87481 -0.17413,-0.87482 -0.12734,-0.45057 -0.12734,-0.45058 -1.35024,2.74462 -1.35025,2.74463 -1.41567,1.52909 -1.41567,1.52909 -1.02474,0.59693 -1.02474,0.59693 -1.16123,0.28955 -1.16123,0.28954 -1.43274,-0.29744 -1.43274,-0.29743 -1.0803,-0.99579 -1.0803,-0.99579 -0.48221,-1.0419 -0.48221,-1.0419 -0.17979,-0.49989 -0.17978,-0.49989 -0.5939,1.80376 -0.5939,1.80377 -0.72355,1.57051 -0.72354,1.57051 -0.79969,1.08397 -0.7997,1.08397 -1.09747,0.48547 -1.09746,0.48546 -0.69736,-0.16444 -0.69735,-0.16445 -0.71024,-0.65515 -0.71025,-0.65516 -0.45613,-0.88643 -0.45614,-0.88644 -0.17365,-0.92567 -0.17366,-0.92568 h -0.22213 -0.22213 v 0.25801 0.25801 l -0.76684,1.98849 -0.76684,1.98849 -0.99134,1.48454 -0.99134,1.48454 -1.11274,0.53867 -1.11274,0.53867 -0.74156,-0.16288 -0.74157,-0.16287 -0.64357,-0.50624 -0.64358,-0.50624 -0.51569,-1.01084 -0.51569,-1.01083 -0.30563,-1.49832 -0.30563,-1.49832 -1.43988,2.93846 -1.43988,2.93845 -1.82088,1.82088 -1.82088,1.82087 -1.09733,0.56908 -1.09733,0.56907 -1.30005,0.007 -1.30005,0.007 -0.93187,-0.75423 -0.93188,-0.75423 -0.47853,-0.92211 -0.47853,-0.92211 -0.13223,-0.98582 -0.13223,-0.98583 0.16741,-0.89236 0.16741,-0.89237 0.94944,-0.99806 0.94943,-0.99807 h 0.78278 0.78278 l 0.38732,0.59113 0.38732,0.59113 -0.24774,0.65162 -0.24775,0.65162 -0.67143,0.16852 -0.67143,0.16852 -0.45168,-0.28207 -0.45167,-0.28208 -0.16781,0.89449 -0.1678,0.89448 0.29127,0.97219 0.29127,0.97219 0.55339,0.62862 0.5534,0.62862 0.74983,0.13441 0.74984,0.1344 0.77821,-0.48517 0.7782,-0.48517 0.56409,-1.16524 0.56408,-1.16524 0.12679,-1.57957 0.1268,-1.57958 -0.31319,-1.34123 -0.31318,-1.34124 -0.85034,-1.71457 -0.85033,-1.71458 -0.71792,-1.03483 -0.71791,-1.03483 -0.8788,-0.99979 -0.8788,-0.99978 -0.12996,0.37492 -0.12996,0.37492 -0.77559,4.32516 -0.77558,4.32518 -0.86825,3.01651 -0.86824,3.01651 -1.01179,2.071 -1.01178,2.07099 -0.86294,0.88854 -0.86294,0.88854 -0.9606,0.2878 -0.9606,0.2878 -0.90393,-0.42894 -0.90393,-0.42894 -0.75989,-1.14723 -0.75988,-1.14722 -0.30691,-1.01457 -0.30689,-1.01458 0.0165,-3.49924 0.0165,-3.49925 0.53871,-3.49925 0.53871,-3.49924 -0.20058,-0.74984 -0.20059,-0.74984 -0.43172,-0.0832 -0.43172,-0.0832 -0.57883,0.37926 -0.57882,0.37926 -1.13098,2.20338 -1.13098,2.20338 -0.89161,2.39741 -0.89161,2.39741 -0.77692,4.60108 -0.77692,4.60109 0.11815,1.62465 0.11815,1.62465 0.17521,0.80347 0.17522,0.80345 -0.87408,0.41682 -0.87407,0.41682 -0.89213,-0.16737 -0.89214,-0.16736 -0.75321,-0.91378 -0.753212,-0.91377 -0.286315,-1.27939 -0.286316,-1.2794 0.09571,-2.7964 0.09571,-2.79639 h -0.04134 -0.04134 l -1.267612,0.85304 -1.267613,0.85304 -0.837589,0.27643 -0.837593,0.27643 -0.422976,2.38717 -0.422974,2.38718 -0.751606,1.94897 -0.751606,1.94898 -0.990915,1.3838 -0.990914,1.38379 -1.302312,0.64897 -1.30231,0.64897 H 87.0997 85.977959 l -1.078031,-0.52186 -1.07803,-0.52187 -0.874267,-1.02138 -0.874265,-1.02139 -0.452013,-1.21172 -0.452012,-1.21172 -0.789238,2.86497 -0.78924,2.86498 -0.912599,2.45194 -0.912599,2.45195 -1.212632,2.49946 -1.212631,2.49946 -1.307722,1.99957 -1.307718,1.99957 -2.263021,2.25746 -2.263021,2.25745 -1.772669,0.92227 -1.772669,0.92226 -1.466659,0.38202 -1.46666,0.38201 -1.259704,-0.0164 -1.259704,-0.0164 -1.348553,-0.36265 z m 107.170604,-58.24188 1.02065,-1.15952 0.64743,-1.15735 0.64743,-1.15735 0.48199,-1.4293 0.48199,-1.42931 v -1.47987 -1.47987 l -0.46762,-0.57748 -0.46761,-0.57748 -0.66908,0.4384 -0.66907,0.43839 -0.4919,0.79875 -0.49189,0.79874 -0.59403,1.8746 -0.59403,1.87459 -0.40182,2.35605 -0.40182,2.35605 v 0.58961 0.58962 l 0.47436,-0.25387 0.47437,-0.25388 z m -157.1803614,40.16236 -0.26357,-0.97882 -0.601684,-3.58269 -0.601684,-3.5827 -0.331625,-2.99936 -0.331625,-2.99935 0.01022,-6.9985 0.01022,-6.99849 0.44267,-3.62422 0.44267,-3.62422 0.619417,-3.37428 0.619418,-3.37427 0.896251,-3.49925 0.896252,-3.49924 1.2486954,-3.62422 1.248696,-3.62422 1.225039,-2.85661 1.225039,-2.8566 2.065694,-4.01692 2.065695,-4.016916 2.115162,-3.32342 2.115163,-3.32342 2.100066,-2.80026 2.100065,-2.80026 1.886037,-2.24952 1.886038,-2.24951 3.766382,-3.7492 3.766385,-3.74919 3.042661,-2.48136 3.042661,-2.48136 2.951897,-2.070119 2.951896,-2.070118 3.225916,-1.930508 3.225914,-1.930509 3.397662,-1.685469 3.397659,-1.685469 3.057655,-1.252844 3.057658,-1.252844 3.483716,-1.13856 3.483716,-1.13856 3.532658,-0.867423 3.53266,-0.867423 2.798201,-0.506366 2.798201,-0.506366 3.374274,-0.390018 3.374274,-0.390017 5.248876,-0.145433 5.24887,-0.145433 3.87416,0.295715 3.87417,0.295715 2.74941,0.369615 2.74941,0.369615 2.62443,0.50426 2.62444,0.50426 2.99935,0.747765 2.99936,0.747766 4.38206,1.47003 4.38206,1.470031 3.2413,1.410173 3.2413,1.410173 3.12433,1.646409 3.12433,1.646409 3.12433,1.939642 3.12432,1.939642 3.12433,2.311109 3.12433,2.31111 2.24952,1.88965 2.24951,1.88965 3.50795,3.50795 3.50795,3.50795 1.88624,2.24952 1.88623,2.24951 1.89621,2.51795 1.89622,2.51795 1.84924,2.85589 1.84924,2.8559 1.13859,1.999566 1.1386,1.99957 0.91521,1.82246 0.91522,1.82246 -0.14808,0.2396 -0.14808,0.23959 h -0.46304 -0.46304 l -1.43135,-2.68037 -1.43134,-2.68037 -1.58031,-2.581186 -1.58032,-2.58119 -1.68961,-2.42428 -1.68961,-2.42429 -2.49654,-3.12433 -2.49654,-3.12433 -4.25933,-4.25932 -4.25933,-4.25933 -3.12433,-2.49655 -3.12433,-2.49654 -2.37894,-1.658 -2.37895,-1.657996 -2.98748,-1.812596 -2.98749,-1.812597 -4.75639,-2.315481 -4.75639,-2.315481 -3.44799,-1.279177 -3.44798,-1.279177 -3.8108,-1.093747 -3.8108,-1.093747 -3.86383,-0.751506 -3.86382,-0.751506 -3.2493,-0.415698 -3.2493,-0.415698 -4.37406,-0.173957 -4.37406,-0.173957 -4.499035,0.179988 -4.499033,0.179988 -3.124328,0.402435 -3.124328,0.402434 -4.249086,0.851037 -4.249087,0.851037 -3.874166,1.15628 -3.874167,1.156279 -4.119357,1.633528 -4.119357,1.633527 -3.148048,1.57749 -3.14805,1.577491 -2.480497,1.42931 -2.480499,1.42931 -3.249301,2.195465 -3.249301,2.195462 -3.374275,2.69475 -3.374274,2.69474 -4.260729,4.26073 -4.260731,4.26073 -2.70219,3.37428 -2.70219,3.37427 -2.559063,3.87416 -2.559063,3.87417 -1.294682,2.290516 -1.294682,2.29052 -1.598963,3.33327 -1.598963,3.33327 -1.02052,2.57083 -1.02052,2.57083 -1.000376,2.99256 -1.000377,2.99255 -0.8577494,3.43468 -0.85775,3.43468 -0.49532,2.62443 -0.495321,2.62444 -0.417455,3.2493 -0.417455,3.2493 -0.174273,4.37406 -0.174274,4.37406 0.1781,4.31671 0.1781,4.3167 0.419055,3.30666 0.419054,3.30665 0.59216,3.09829 0.592159,3.09829 -0.13195,0.2135 -0.131949,0.2135 h -0.475508 -0.475508 z m 17.9749854,-18.95439 -0.0155,-1.93708 0.02218,-2.49946 0.02218,-2.49946 0.253109,-2.62444 0.25311,-2.62443 0.487972,-2.87439 0.487973,-2.87438 0.616036,-2.53284 0.616036,-2.53284 0.911973,-2.84101 0.911973,-2.841 1.080631,-2.65511 1.08063,-2.65512 1.503244,-2.99878 1.503247,-2.99879 1.416095,-2.34438 1.416096,-2.34438 1.75454,-2.46594 1.75454,-2.46594 1.897504,-2.283036 1.897507,-2.28303 2.132114,-2.22007 2.132117,-2.22006 2.749409,-2.36918 2.749408,-2.36919 2.524608,-1.84157 2.524604,-1.84157 2.647071,-1.62064 2.647068,-1.62065 3.04587,-1.52685 3.04587,-1.52685 2.655117,-1.08063 2.655116,-1.08063 2.841002,-0.91197 2.841002,-0.91197 2.532842,-0.61604 2.532843,-0.61604 2.874382,-0.48756 2.874382,-0.48756 2.588431,-0.2602 2.588433,-0.26021 h 4.945961 4.94595 l 2.58844,0.26021 2.58843,0.2602 2.87438,0.48756 2.87438,0.48756 2.53284,0.61604 2.53285,0.61604 2.841,0.91559 2.841,0.91559 2.45445,0.97487 2.45445,0.97486 2.87945,1.40017 2.87946,1.40017 3.25929,1.97205 3.2593,1.97206 3.3931,2.54753 3.39311,2.54753 3.6062,3.51076 3.60621,3.51075 1.79633,2.12455 1.79634,2.124536 1.39896,1.8746 1.39896,1.87459 1.90101,2.9788 1.90101,2.9788 0.15304,0.60976 0.15304,0.60977 -0.3236,0.19999 -0.32359,0.19999 -0.27366,-0.10501 -0.27365,-0.10501 -0.73573,-1.30905 -0.73573,-1.30906 -1.92864,-2.87438 -1.92864,-2.87438 -2.16235,-2.68858 -2.16236,-2.688586 -2.92057,-2.94298 -2.92056,-2.94299 -2.7759,-2.26164 -2.7759,-2.26164 -1.97308,-1.3821 -1.97308,-1.3821 -2.62444,-1.58042 -2.62443,-1.58041 -3.7492,-1.80416 -3.74919,-1.80416 -3.13658,-1.13288 -3.13659,-1.13289 -2.86212,-0.76159 -2.86213,-0.76158 -2.40257,-0.49216 -2.40258,-0.49217 -3.09624,-0.43225 -3.09625,-0.43225 -6.24865,-0.004 -6.248655,-0.004 -3.207703,0.42824 -3.2077,0.42824 -3.024067,0.6385 -3.024067,0.63849 -3.016242,0.86612 -3.016244,0.86612 -3.499247,1.38814 -3.499248,1.38815 -3.249301,1.68103 -3.249301,1.68103 -2.326847,1.44399 -2.326845,1.44399 -2.547107,1.88942 -2.547105,1.88942 -2.249516,1.94099 -2.249516,1.94099 -2.394643,2.45641 -2.394642,2.45641 -1.381513,1.62465 -1.381513,1.624646 -1.885802,2.54711 -1.885802,2.5471 -1.443992,2.32685 -1.443992,2.32685 -1.681031,3.2493 -1.681031,3.2493 -1.388144,3.49925 -1.388144,3.49924 -0.866119,3.01625 -0.866119,3.01624 -0.636092,3.01269 -0.636092,3.01269 -0.390186,2.84416 -0.390186,2.84416 -0.155148,5.43633 -0.155148,5.43633 h -0.587076 -0.587076 z m 59.127788,-15.39517 -1.249731,-0.32404 -1.179054,-0.52716 -1.179054,-0.52716 -1.225546,-1.14635 -1.225549,-1.14636 -0.670791,-1.49472 -0.670791,-1.49472 -0.391128,-2.06309 -0.391126,-2.06309 0.109316,-6.01241 0.109317,-6.01242 -3.641292,0.10574 -3.641292,0.10574 -0.374919,0.19613 -0.37492,0.19613 -0.571489,2.63619 -0.571488,2.6362 -0.894345,2.8244 -0.894345,2.8244 -0.942635,1.8746 -0.942637,1.8746 -1.131569,1.49967 -1.131569,1.49968 -1.228589,0.93152 -1.228588,0.93151 -1.480029,0.69314 -1.480029,0.69313 h -2.499463 -2.499462 l -1.249732,-0.61417 -1.249731,-0.61418 -1.201459,-1.20024 -1.201457,-1.20025 -0.725991,-1.55985 -0.725989,-1.55986 -0.384555,-1.4897 -0.384554,-1.4897 v -2.03205 -2.03205 l 0.494431,-1.9332 0.494431,-1.93321 0.692813,-1.27336 0.692814,-1.27335 1.065523,-1.18533 1.065521,-1.18534 1.336113,-0.88686 1.336115,-0.88686 1.891521,-0.63496 1.891518,-0.63497 0.830744,0.002 0.830741,0.001 0.999785,0.27351 0.999785,0.27352 1.212377,1.25001 1.212377,1.25002 2.973138,-0.23245 2.973138,-0.23245 0.127653,-0.12765 0.127652,-0.12765 1.025025,-5.09856 1.025022,-5.09856 0.732092,-2.252426 0.732093,-2.25243 1.016284,-2.06055 1.016286,-2.06056 1.317287,-1.3385 1.317284,-1.3385 1.219078,-0.60008 1.219075,-0.6003 h 1.295807 1.295804 l 0.76553,0.73342 0.765533,0.73343 0.481519,1.28697 0.481519,1.28698 0.304049,2.6036 0.304047,2.60361 -0.173347,6.402386 -0.173345,6.40238 1.929577,-0.33554 1.92958,-0.33554 0.811091,-0.26769 0.811093,-0.26768 0.150013,-0.39093 0.15001,-0.39092 0.160425,-3.70639 0.160426,-3.70638 -0.407638,-0.62213 -0.407637,-0.622136 0.751526,-0.63236 0.751526,-0.63237 0.865811,-0.16243 0.865812,-0.16243 0.664574,0.1668 0.664575,0.1668 0.693398,0.74229 0.693401,0.742276 0.17274,0.80556 0.172738,0.80557 0.12981,0.21897 0.129807,0.21897 0.805602,-1.71865 0.805599,-1.718646 0.937703,-1.24973 0.937704,-1.24973 0.626625,-0.47146 0.62662,-0.47144 1.05368,-0.11877 1.05367,-0.11876 0.78154,0.40415 0.78153,0.40414 0.62159,1.06088 0.62159,1.06088 0.38792,1.48971 0.38792,1.489696 v 2.64391 2.64391 l -0.37293,2.98985 -0.37292,2.98986 -0.002,1.20367 -0.002,1.20368 0.25874,0.48346 0.25874,0.48346 h 0.47296 0.47296 l 0.49138,-0.6247 0.49139,-0.62469 0.67351,-1.68241 0.67352,-1.68241 0.84088,-3.2809 0.84089,-3.28091 0.39573,-3.21051 0.39573,-3.210506 0.59829,-1.72037 0.59828,-1.72036 0.83002,-1.38184 0.83002,-1.38184 0.99978,-0.86835 0.99979,-0.86835 0.91584,-0.47221 0.91584,-0.4722 1.10382,-0.24737 1.10383,-0.24737 0.90113,0.24881 0.90115,0.24882 0.64093,0.7617 0.64093,0.76171 v 0.93062 0.93061 l -0.29994,0.29994 -0.29993,0.29993 h -0.682 -0.682 l -0.41337,-0.41337 -0.41337,-0.41338 0.16028,-0.85437 0.16028,-0.85438 -0.69399,0.0805 -0.69398,0.0805 -0.57196,0.85153 -0.57197,0.85153 -0.61113,1.93458 -0.61114,1.93459 -0.41401,2.96265 -0.41401,2.962646 0.13123,2.12454 0.13122,2.12454 0.39323,1.27183 0.39322,1.27182 0.57243,0.84942 0.57242,0.84942 0.69281,0.24365 0.69281,0.24365 0.42422,-0.2638 0.42421,-0.2638 0.53335,-0.78276 0.53335,-0.78275 0.52375,-1.94321 0.52376,-1.9432 0.65217,-4.37406 0.65217,-4.374056 0.0403,-3.87416 0.0404,-3.87417 -0.21344,-0.55025 -0.21344,-0.55026 0.83831,-0.51108 0.8383,-0.51108 1.32358,-0.001 1.32358,-0.001 0.62726,0.62725 0.62725,0.62726 0.41262,0.93491 0.41261,0.9349 -0.0234,2.74941 -0.0234,2.74941 -0.64044,3.87417 -0.64044,3.874166 -0.16981,1.66614 -0.1698,1.66614 0.1621,0.64586 0.1621,0.64586 h 0.48539 0.48539 l 0.50965,-0.54704 0.50964,-0.54703 0.7731,-2.00473 0.77311,-2.00472 0.71628,-2.759596 0.71627,-2.7596 0.3343,-2.37448 0.33429,-2.37449 0.71372,-0.0828 0.71373,-0.0828 -0.14428,1.7074 -0.14428,1.7074 -0.53303,2.60984 -0.53303,2.609846 -0.93323,2.79093 -0.93324,2.79093 -0.86438,1.44198 -0.86438,1.44198 -0.97295,0.64995 -0.97295,0.64995 h -0.90826 -0.90826 l -0.79028,-0.56273 -0.79028,-0.56273 -0.67995,-1.38976 -0.67995,-1.38976 -0.66444,1.98031 -0.66444,1.98032 -0.52121,0.7277 -0.5212,0.72769 -0.59023,0.55045 -0.59022,0.55045 -0.92586,0.38685 -0.92586,0.38685 -1.44522,-0.005 -1.44522,-0.005 -1.01373,-0.46045 -1.01374,-0.46045 -0.93309,-1.09011 -0.93309,-1.09011 -0.41313,-1.16319 -0.41313,-1.16318 -1.02683,3.07219 -1.02684,3.07219 -0.93316,1.40543 -0.93315,1.40544 -0.80395,0.49019 -0.80396,0.49019 -0.93657,0.001 -0.93658,0.001 -0.97063,-0.8769 -0.97062,-0.8769 -0.51592,-1.19928 -0.51592,-1.19929 -0.24995,-1.99345 -0.24996,-1.99346 0.21314,-2.74139 0.21314,-2.7414 0.32105,-2.79428 0.32106,-2.794266 -0.29274,-0.64249 -0.29273,-0.64248 h -0.48303 -0.483036 l -0.685425,0.81232 -0.685425,0.81233 -0.829271,1.727546 -0.829275,1.72755 -0.87175,2.64651 -0.871742,2.64653 -0.635126,4.38966 -0.635126,4.38967 v 1.4131 1.41311 l 0.424199,0.88955 0.424199,0.88956 -0.556116,0.55611 -0.556115,0.55612 H 92.48689 91.420569 l -0.64779,-0.42445 -0.647791,-0.42445 -0.590948,-1.2002 -0.590948,-1.2002 v -4.0729 -4.07289 l -0.624865,0.17335 -0.624866,0.17335 -2.124543,0.40483 -2.124543,0.40482 -0.17614,3.61969 -0.176142,3.61969 0.137053,2.49947 0.13705,2.49946 0.369379,1.47969 0.369378,1.47969 0.751541,1.4888 0.75154,1.48879 1.167687,1.25571 1.167686,1.2557 1.056178,0.4713 1.056175,0.4713 1.068368,0.0195 1.068365,0.0195 1.094065,-0.29667 1.094067,-0.29666 0.280638,0.28588 0.280639,0.28589 -0.587221,0.47984 -0.587224,0.47985 -1.287373,0.40246 -1.287376,0.40246 -2.499462,0.0938 -2.499463,0.0938 z m -25.932591,-4.7068 1.061602,-0.50005 0.894858,-1.0403 0.894857,-1.0403 0.862727,-1.53673 0.862727,-1.53674 0.966435,-2.58738 0.966432,-2.58737 0.81418,-3.31517 0.814177,-3.31516 -0.115252,-0.11525 -0.115251,-0.11525 -2.583327,0.22439 -2.583329,0.22439 -0.210255,0.33164 -0.210255,0.33164 -0.0079,0.4999 -0.0079,0.49989 -0.5597,0.98816 -0.559697,0.98816 -1.080273,0.82395 -1.08027,0.82395 h -1.212159 -1.212159 l -0.518034,-0.65857 -0.518034,-0.65858 v -0.72416 -0.72416 l 0.33671,-0.80429 0.33671,-0.8043 1.005324,-0.90713 1.005324,-0.90713 0.923804,-0.30489 0.923804,-0.30488 -0.453728,-0.50962 -0.453727,-0.50962 -0.782804,-0.33144 -0.782802,-0.33144 -0.731478,0.20978 -0.731475,0.20979 -0.760621,0.39333 -0.760619,0.39333 -0.785409,0.89453 -0.785406,0.89453 -0.467494,0.93035 -0.467495,0.93035 -0.329876,1.3747 -0.329879,1.37471 0.03512,2.24951 0.03512,2.24952 0.497131,1.92372 0.49713,1.92373 0.672955,1.42251 0.672956,1.42251 0.955692,0.95569 0.955692,0.95569 0.82197,0.2396 0.821971,0.2396 0.749839,-0.12679 0.749839,-0.12679 1.061604,-0.50006 z m 18.082542,-20.25348 0.148233,-0.22585 0.157813,-4.92268 0.157817,-4.92267 -0.238554,-3.532286 -0.238554,-3.5323 -0.248766,-0.6543 -0.248767,-0.6543 h -0.459316 -0.459316 l -0.644129,0.68735 -0.644129,0.68735 -0.495376,0.99978 -0.495376,0.99979 -0.641562,1.87459 -0.641562,1.8746 -0.873742,3.374266 -0.87374,3.37428 -0.407767,2.12454 -0.407768,2.12454 -0.12504,0.43641 -0.125038,0.4364 3.828204,-0.16183 3.828204,-0.16182 z m -36.581978,-22.125466 -3.440843,-3.66959 1.441273,-1.45702 1.441272,-1.457 1.236319,-0.61642 1.236322,-0.61642 h 0.958736 0.958739 l 0.92927,0.38818 0.92927,0.38818 0.718871,0.67409 0.71887,0.67409 0.462886,0.99979 0.462885,0.99978 0.0055,1.0132 0.0055,1.01319 -0.645886,1.29613 -0.645889,1.29613 -1.568863,1.37738 -1.56886,1.37739 -0.09725,-0.006 -0.09725,-0.006 -3.440842,-3.6696 z m 6.154306,-0.43058 0.660811,-0.98733 v -1.16276 -1.16274 l -0.568328,-0.84334 -0.568326,-0.84334 -0.843341,-0.56832 -0.843341,-0.56833 h -1.177889 -1.177889 l -0.972176,0.65033 -0.972179,0.65032 -0.687352,0.64617 -0.687352,0.64617 v 0.22243 0.22243 l 2.675225,2.83826 2.675222,2.83825 0.913051,-0.79545 0.913051,-0.79544 z m 115.761059,3.01849 -0.74984,-0.34759 -0.79966,-0.84179 -0.79965,-0.84178 -0.38759,-0.92927 -0.38759,-0.92927 v -0.63292 -0.63289 h 0.47022 0.47022 l 0.29433,1.16887 0.29432,1.16887 0.95568,0.95567 0.95567,0.95568 h 0.74051 0.7405 l 0.41366,-0.45709 0.41366,-0.45709 v -0.63995 -0.63996 l -0.99979,-1.71088 -0.99978,-1.71089 v -0.92204 -0.92204 l 0.76906,-0.76906 0.76907,-0.76907 1.04304,0.001 1.04305,0.001 0.81749,0.49843 0.81749,0.49842 0.74468,1.17423 0.74467,1.17422 v 0.54919 0.54919 l -0.39537,0.15171 -0.39536,0.15172 h -0.065 -0.065 l -0.29262,-0.97668 -0.29263,-0.97669 -0.70866,-0.75862 -0.70866,-0.75863 -0.66475,-0.16684 -0.66475,-0.16684 -0.62305,0.40823 -0.62304,0.40824 v 0.65082 0.65082 l 0.99978,1.81116 0.99979,1.81117 v 0.98474 0.98473 l -0.71082,0.68102 -0.71083,0.68101 -0.85134,0.11772 -0.85134,0.11772 -0.74984,-0.34759 z m -8.8408,-7.5607 -1.31559,-0.65559 -0.63084,-0.95326 -0.63084,-0.95326 -0.21301,-0.94444 -0.213,-0.94444 0.25376,-1.18325 0.25376,-1.18325 0.72849,-1.00565 0.72849,-1.00565 1.06563,-0.55555 1.06562,-0.55556 1.3747,-0.007 1.37471,-0.007 1.11366,0.61848 1.11365,0.61848 0.73965,1.05351 0.73965,1.05351 0.11279,1.36011 0.11279,1.36011 -0.62368,1.36231 -0.62369,1.36231 -0.84252,0.62609 -0.84252,0.6261 -0.84962,0.28447 -0.84963,0.28446 h -0.91341 -0.91341 l -1.31559,-0.65559 z m 4.52429,-1.24809 0.93236,-0.59634 0.50483,-0.98955 0.50483,-0.98955 v -1.03448 -1.03445 l -0.40744,-0.85863 -0.40745,-0.85862 -1.0517,-0.61634 -1.05171,-0.61634 h -0.94005 -0.94005 l -0.87915,0.41718 -0.87915,0.41718 -0.69274,0.95631 -0.69275,0.95631 -0.16365,0.87232 -0.16365,0.87232 0.25659,0.95291 0.25659,0.95291 0.72565,0.69521 0.72565,0.69521 0.96547,0.33425 0.96548,0.33424 0.74984,-0.13286 0.74984,-0.13286 z m -106.409679,0.69463 -0.999785,-0.47465 -0.517391,-0.59535 -0.517392,-0.59536 -1.669638,-2.31666 -1.669638,-2.31667 v -0.21854 -0.21854 l 0.395362,-0.15172 0.39536,-0.15171 h 0.09321 0.0932 l 1.78024,2.49348 1.780237,2.49347 0.749727,0.63085 0.749726,0.63086 h 0.922586 0.922587 l 0.895825,-0.60873 0.895827,-0.60873 0.315552,-0.76181 0.31555,-0.76181 -0.158901,-0.81649 -0.158903,-0.81649 -2.037332,-2.84623 -2.037332,-2.84622 0.467065,-0.34153 0.467067,-0.34153 0.158236,0.1884 0.158236,0.1884 1.630197,2.25265 1.630197,2.25265 0.435101,0.84139 0.435101,0.84139 0.0161,1.06489 0.0161,1.06488 -0.488562,0.83654 -0.488565,0.83654 -1.008838,0.70903 -1.008836,0.70904 -0.978744,0.11448 -0.978745,0.11448 -0.999785,-0.47465 z m 95.127909,-4.22106 -0.54734,-0.44365 -0.24337,-1.8746 -0.24337,-1.87459 -0.12375,-0.56032 -0.12375,-0.56032 -1.22148,-0.61898 -1.22149,-0.61897 -0.24431,0.30448 -0.24431,0.30448 -0.65871,1.31222 -0.65872,1.31222 -0.30822,-0.004 -0.30822,-0.004 -0.30163,-0.19171 -0.30163,-0.1917 2.49204,-4.53476 2.49203,-4.534748 2.05868,1.137298 2.05868,1.137298 0.47337,0.329923 0.47337,0.329919 0.46228,0.70112 0.46228,0.70111 0.002,0.82474 0.002,0.82474 -0.37915,0.7332 -0.37915,0.73319 -0.78628,0.40661 -0.78629,0.4066 -0.9478,-0.12713 -0.9478,-0.12712 0.10838,0.66205 0.10838,0.66205 0.26279,1.84621 0.26279,1.84621 -0.0971,0.0971 -0.0971,0.0971 -0.54734,-0.44366 z m 2.35215,-6.12993 0.65376,-0.56238 0.0233,-0.81804 0.0232,-0.81804 -0.53218,-0.56648 -0.53218,-0.56648 -1.61294,-0.861781 -1.61295,-0.861784 -0.0997,0.121761 -0.0997,0.12176 -0.90506,1.672704 -0.90506,1.67271 1.5495,0.85627 1.5495,0.85627 0.37492,0.13821 0.37492,0.13822 0.54845,0.0197 0.54843,0.0197 0.65377,-0.56238 z m -90.40862,1.36917 -2.426518,-4.43101 0.401284,-0.30443 0.401283,-0.30442 0.196618,0.12151 0.19662,0.12152 2.044983,3.74776 2.044983,3.74776 0.173645,0.10732 0.173645,0.10732 2.46758,-1.36347 2.467579,-1.36346 0.200187,0.31573 0.200187,0.31573 -0.07851,0.24995 -0.07851,0.24994 -2.729321,1.54654 -2.72932,1.54653 -0.249946,0.0101 -0.249947,0.0101 -2.426518,-4.43101 z m 76.06444,-1.19646 -3.34553,-1.34412 -0.10294,-0.10294 -0.10294,-0.10294 1.90018,-4.749504 1.90017,-4.749509 3.48538,1.391344 3.48537,1.391344 -0.004,0.141398 -0.004,0.141398 -0.227,0.358737 -0.227,0.358737 -2.75534,-1.079734 -2.75534,-1.079735 -0.16104,-0.02884 -0.16104,-0.02884 -0.60416,1.485003 -0.60416,1.485002 0.18963,0.182156 0.18964,0.182155 2.312,0.921023 2.31201,0.921022 v 0.356533 0.35653 l -0.31983,0.12273 -0.31982,0.12273 -2.41252,-0.981624 -2.41252,-0.981621 -0.65309,1.631385 -0.65309,1.63139 0.0736,0.0723 0.0736,0.0723 2.62444,1.041 2.62443,1.041 0.21336,0.20678 0.21336,0.20678 -0.21336,0.37634 -0.21337,0.37633 z m -65.332593,0.31898 -0.942682,-0.30423 -0.841504,-0.67572 -0.841501,-0.67573 -0.527819,-1.09033 -0.527817,-1.09032 0.0041,-1.483251 0.0041,-1.48325 0.56039,-0.98939 0.560387,-0.989389 1.065293,-0.748716 1.065294,-0.748716 1.55702,-0.09442 1.557022,-0.09442 0.530806,0.207873 0.530804,0.207872 -0.202022,0.539952 -0.202021,0.539953 -0.976431,-0.247845 -0.976432,-0.247845 -1.026362,0.276371 -1.026362,0.27637 -0.756867,0.756867 -0.756867,0.756867 -0.265678,0.986658 -0.26568,0.986657 0.282619,1.062272 0.282622,1.06227 0.587716,0.77715 0.587718,0.77715 0.924304,0.43862 0.924306,0.43861 1.085767,-0.12239 1.085766,-0.12238 0.633434,-0.41504 0.633434,-0.41504 0.710575,-0.98092 0.710577,-0.98092 0.416545,0.30458 0.416546,0.30459 -0.728816,1.14922 -0.728816,1.14922 -1.090618,0.52523 -1.09062,0.52524 -0.999785,0.12744 -0.999785,0.12745 z m 8.721025,-2.85573 -0.135283,-0.44785 -1.262464,-4.475324 -1.262463,-4.47532 0.07367,-0.07367 0.07367,-0.07367 3.49095,-0.976957 3.490949,-0.976956 0.159081,0.402046 0.159081,0.402047 -0.159081,0.161452 -0.159081,0.161451 -2.71878,0.766049 -2.718783,0.766048 -0.112339,0.11234 -0.11234,0.11234 0.427083,1.522109 0.42708,1.522109 h 0.357436 0.357436 l 2.230635,-0.641735 2.230635,-0.641736 0.253373,0.156594 0.253376,0.156595 v 0.342432 0.342433 l -1.312218,0.377357 -1.312218,0.377357 -1.191494,0.295986 -1.191493,0.295987 -0.134224,0.217179 -0.134224,0.21718 0.421355,1.501702 0.421357,1.501705 h 0.367171 0.367171 l 2.635858,-0.767844 2.635856,-0.767841 0.20951,0.330435 0.209507,0.330435 0.0038,0.168076 0.0038,0.168076 -0.812325,0.257883 -0.812325,0.25789 -2.37449,0.64858 -2.374489,0.64859 -0.417248,0.12314 -0.417248,0.12315 -0.135281,-0.44786 z m 47.304268,-0.46351 -1.15531,-0.35576 -1.03172,-1.001259 -1.03173,-1.001259 v -0.223482 -0.223482 l 0.41798,-0.160394 0.41798,-0.160394 0.89424,0.86861 0.89423,0.868609 0.70363,0.264828 0.70362,0.264823 h 0.8198 0.8198 l 0.41366,-0.457082 0.41366,-0.457087 V 67.43466 66.776726 l -0.55448,-0.516578 -0.55448,-0.516577 -1.29915,-0.733197 -1.29916,-0.733197 -0.39588,-0.5652 -0.39588,-0.565201 0.006,-1.006657 0.006,-1.006657 0.43185,-0.533125 0.43185,-0.533126 0.54595,-0.2792 0.54594,-0.2792 h 0.89928 0.89927 l 0.92927,0.387587 0.92927,0.387587 0.80403,0.778166 0.80403,0.778166 -0.42911,0.316908 -0.42911,0.316908 -0.62487,-0.579315 -0.62486,-0.579314 -0.79992,-0.403454 -0.79991,-0.403454 h -0.60959 -0.60959 l -0.51342,0.437406 -0.51343,0.437406 -0.0438,0.37492 -0.0438,0.374919 0.0296,0.434853 0.0296,0.434853 1.43719,0.926388 1.43719,0.926389 0.81233,0.749846 0.81232,0.749846 v 1.04202 1.042019 l -0.51126,0.649963 -0.51126,0.64997 -0.92593,0.25716 -0.92593,0.25716 -0.24995,-0.016 -0.24994,-0.016 -1.1553,-0.35576 z m -5.31762,-1.580256 -0.47421,-0.186073 -0.40749,-1.35191 -0.40748,-1.351909 -2.67948,-0.401834 -2.67948,-0.401834 -0.33859,0.39522 -0.33859,0.39522 -0.4657,0.812325 -0.4657,0.812326 h -0.59772 -0.59771 l 0.14997,-0.390837 0.14998,-0.390838 2.90654,-4.490303 2.90653,-4.490304 0.53197,0.163212 0.53196,0.163213 0.0209,0.03144 0.0209,0.03144 1.44943,5.123897 1.44942,5.123898 0.11861,0.312433 0.1186,0.312433 -0.2142,-0.01757 -0.2142,-0.01757 -0.47421,-0.186073 z m -1.65034,-4.194548 v -0.16667 l -0.66046,-2.457766 -0.66046,-2.457765 -0.15186,0.0049 -0.15187,0.0049 -1.31221,2.091004 -1.31222,2.091004 v 0.243943 0.243943 l 1.81211,0.248341 1.81211,0.248341 0.31243,0.03625 0.31243,0.03625 z m -30.680899,3.422702 -1.062272,-0.482183 v -0.212177 -0.212177 l 0.287128,-0.287128 0.287126,-0.287127 0.68642,0.354962 0.68642,0.354962 0.963538,0.12921 0.963535,0.12921 0.866376,-0.309521 0.866379,-0.30952 0.37159,-0.664082 0.37159,-0.664082 -0.28917,-0.634657 -0.289168,-0.634657 -0.948799,-0.254531 -0.948798,-0.254531 -1.43977,-0.152175 -1.439773,-0.152174 -0.738759,-0.621625 -0.738759,-0.621626 -0.155594,-0.82938 -0.155591,-0.829381 0.409174,-0.791256 0.409175,-0.791256 0.80019,-0.487905 0.800191,-0.487905 1.399894,-9.25e-4 1.399891,-9.25e-4 0.787138,0.274398 0.787136,0.274397 -0.0038,0.163009 -0.0038,0.163008 -0.219278,0.346241 -0.219278,0.346241 -0.813977,-0.283754 -0.813985,-0.283774 h -0.849925 -0.849927 l -0.707138,0.365676 -0.707138,0.365675 -0.155262,0.404606 -0.155261,0.404606 v 0.440711 0.440712 l 0.481294,0.435566 0.481296,0.435566 1.927348,0.239281 1.927348,0.239281 0.735374,0.380277 0.735377,0.380277 0.369401,0.884103 0.369403,0.884103 -0.15129,0.688819 -0.15129,0.688819 -0.694023,0.664916 -0.694023,0.664917 -0.854347,0.245023 -0.854349,0.245023 -1.001434,-0.0055 -1.001435,-0.0055 z m 16.059049,-0.88223 -0.99979,-0.353666 -0.92009,-0.981942 -0.92009,-0.981942 -0.29292,-1.087811 -0.29291,-1.087812 0.14606,-1.065657 0.14607,-1.065657 0.50225,-0.984506 0.50226,-0.984505 0.81463,-0.608411 0.81464,-0.608411 0.96853,-0.310573 0.96853,-0.310573 1.09433,0.149993 1.09432,0.149994 0.98202,0.500992 0.98203,0.500993 0.17151,0.277503 0.1715,0.277503 -0.3681,0.3681 -0.36809,0.3681 -0.9737,-0.664562 -0.97369,-0.66456 -1.55783,0.09659 -1.55783,0.09659 -0.78495,0.738269 -0.78496,0.738269 -0.34414,0.804297 -0.34413,0.804298 v 0.890867 0.890868 l 0.34413,0.804298 0.34414,0.804297 0.76045,0.714796 0.76046,0.714796 0.83249,0.173903 0.83249,0.173903 0.96146,-0.172203 0.96146,-0.172203 0.75217,-0.556105 0.75217,-0.556105 0.39954,0.399543 0.39955,0.399544 -0.48852,0.391075 -0.48853,0.391075 -0.99978,0.480692 -0.99979,0.480692 -0.99978,-0.0055 -0.99979,-0.0055 -0.99978,-0.353665 z"
       id="path2314"
       inkscape:export-filename="LOGO-EXPORTADO.svg"
       inkscape:export-xdpi="96"
       inkscape:export-ydpi="96" /></g></svg>
